M48
; DRILL file {KiCad (6.0.5)} date Fri Feb 24 20:57:03 2023
; FORMAT={-:-/ absolute / inch / decimal}
; #@! TF.CreationDate,2023-02-24T20:57:03-05:00
; #@! TF.GenerationSoftware,Kicad,Pcbnew,(6.0.5)
; #@! TF.FileFunction,Plated,1,2,PTH
FMAT,2
INCH
; #@! TA.AperFunction,Plated,PTH,ViaDrill
T1C0.0157
; #@! TA.AperFunction,Plated,PTH,ComponentDrill
T2C0.0236
; #@! TA.AperFunction,Plated,PTH,ComponentDrill
T3C0.0276
; #@! TA.AperFunction,Plated,PTH,ComponentDrill
T4C0.0315
; #@! TA.AperFunction,Plated,PTH,ComponentDrill
T5C0.0354
; #@! TA.AperFunction,Plated,PTH,ComponentDrill
T6C0.0390
; #@! TA.AperFunction,Plated,PTH,ComponentDrill
T7C0.0394
; #@! TA.AperFunction,Plated,PTH,ComponentDrill
T8C0.0433
; #@! TA.AperFunction,Plated,PTH,ComponentDrill
T9C0.0512
; #@! TA.AperFunction,Plated,PTH,ComponentDrill
T10C0.0630
; #@! TA.AperFunction,Plated,PTH,ComponentDrill
T11C0.0787
%
G90
G05
T1
X3.4608Y-6.5285
X3.4628Y-5.0645
X3.7717Y-3.5394
X3.8308Y-3.6885
X3.8562Y-6.2283
X3.874Y-7.48
X3.874Y-8.082
X3.8748Y-6.4535
X3.8912Y-6.2615
X3.9212Y-6.293
X3.9512Y-6.3223
X3.9656Y-3.7097
X3.9728Y-9.4145
X3.9802Y-6.3545
X4.009Y-6.3889
X4.0376Y-6.4261
X4.0762Y-6.4641
X4.1048Y-6.4985
X4.1248Y-9.4125
X4.1358Y-8.4331
X4.1808Y-6.0445
X4.252Y-3.3819
X4.258Y-9.001
X4.2668Y-6.8805
X4.284Y-9.188
X4.2848Y-9.3985
X4.3268Y-3.7362
X4.3428Y-6.9165
X4.3453Y-3.488
X4.3593Y-2.9793
X4.363Y-6.2283
X4.3632Y-2.8346
X4.3928Y-6.2605
X4.4001Y-6.9519
X4.4215Y-9.0395
X4.4223Y-6.293
X4.4345Y-8.435
X4.4388Y-9.3945
X4.4473Y-6.954
X4.4501Y-3.479
X4.4521Y-6.327
X4.463Y-9.079
X4.4938Y-6.3555
X4.499Y-9.107
X4.5142Y-6.9825
X4.5258Y-6.3895
X4.5306Y-8.509
X4.5453Y-8.8563
X4.554Y-7.268
X4.5568Y-6.4225
X4.5578Y-5.2935
X4.5597Y-4.8497
X4.5662Y-7.011
X4.5858Y-6.4635
X4.5882Y-4.79
X4.5888Y-5.2025
X4.5946Y-9.3846
X4.5962Y-7.0405
X4.6168Y-4.725
X4.6168Y-5.1705
X4.619Y-8.257
X4.6248Y-7.069
X4.6295Y-7.1925
X4.638Y-6.1237
X4.6388Y-6.7385
X4.6398Y-5.9235
X4.6558Y-7.0975
X4.6588Y-7.3825
X4.6752Y-8.9065
X4.6752Y-7.3445
X4.6848Y-5.1285
X4.6852Y-7.1261
X4.7028Y-7.1925
X4.7074Y-6.6798
X4.7335Y-4.5738
X4.7505Y-9.3887
X4.7548Y-7.221
X4.7567Y-7.1546
X4.7608Y-4.6785
X4.767Y-8.591
X4.7908Y-4.8185
X4.7952Y-5.0285
X4.8048Y-6.9165
X4.8268Y-4.7785
X4.829Y-8.635
X4.8391Y-3.4847
X4.8508Y-6.954
X4.8588Y-4.9285
X4.8908Y-4.8825
X4.8928Y-5.0765
X4.9038Y-6.9825
X4.928Y-8.646
X4.9288Y-4.8285
X4.9288Y-4.9585
X4.9311Y-2.5325
X4.9562Y-7.011
X4.978Y-8.8251
X4.9988Y-5.2345
X5.0048Y-7.0405
X5.0533Y-7.069
X5.0908Y-5.3285
X5.1038Y-7.0975
X5.1408Y-5.235
X5.1508Y-4.4805
X5.1543Y-7.1261
X5.166Y-5.1632
X5.1699Y-8.8391
X5.1982Y-8.6142
X5.2047Y-7.1546
X5.2408Y-5.3985
X5.2568Y-6.8785
X5.2868Y-5.2265
X5.2908Y-5.3635
X5.2935Y-8.4214
X5.3008Y-3.9265
X5.3048Y-7.3445
X5.3408Y-5.4335
X5.3563Y-3.062
X5.3588Y-6.871
X5.3708Y-5.193
X5.3908Y-5.464
X5.3938Y-7.441
X5.3996Y-8.6075
X5.4088Y-8.4745
X5.4203Y-5.5025
X5.4308Y-5.3985
X5.4428Y-4.3165
X5.4805Y-8.3425
X5.4808Y-4.4885
X5.489Y-9.241
X5.4921Y-5.5334
X5.5276Y-8.9606
X5.538Y-8.5875
X5.589Y-7.775
X5.617Y-8.211
X5.6208Y-7.1925
X5.6268Y-8.1525
X5.6425Y-4.9261
X5.6425Y-5.2265
X5.6427Y-9.2175
X5.6483Y-4.1785
X5.6508Y-5.4635
X5.6624Y-3.0325
X5.6655Y-8.298
X5.6668Y-8.3702
X5.6858Y-5.4835
X5.6889Y-2.4055
X5.689Y-2.6722
X5.6908Y-6.2705
X5.7008Y-4.4085
X5.7208Y-5.5235
X5.7262Y-7.221
X5.7308Y-4.1285
X5.7608Y-4.0285
X5.7608Y-3.0876
X5.7622Y-5.5535
X5.7796Y-9.2165
X5.784Y-4.4985
X5.801Y-4.5783
X5.8012Y-3.4734
X5.817Y-9.187
X5.8212Y-4.6783
X5.8458Y-5.3635
X5.8514Y-4.5785
X5.8558Y-5.9685
X5.8788Y-6.9165
X5.8808Y-5.8685
X5.881Y-4.2783
X5.8882Y-8.5138
X5.9048Y-6.7885
X5.9068Y-6.2405
X5.9106Y-4.1783
X5.9108Y-5.7185
X5.9288Y-8.1225
X5.9302Y-6.954
X5.9405Y-5.5982
X5.941Y-4.0783
X5.9458Y-5.8185
X5.9532Y-6.3185
X5.9788Y-6.9825
X5.9805Y-5.7082
X5.9806Y-3.9783
X5.9808Y-5.235
X5.9817Y-6.4185
X5.989Y-8.547
X6.0103Y-5.6142
X6.0108Y-3.8475
X6.0108Y-5.1285
X6.0108Y-5.193
X6.0142Y-6.3685
X6.0293Y-7.011
X6.0334Y-3.6329
X6.0408Y-4.3785
X6.0448Y-6.4685
X6.0606Y-3.6675
X6.0706Y-4.4783
X6.0758Y-4.4285
X6.0907Y-8.5123
X6.0984Y-3.6831
X6.1142Y-5.0945
X6.1308Y-7.0405
X6.1782Y-7.069
X6.2291Y-8.3702
X6.2313Y-7.0975
X6.2665Y-8.547
X6.2783Y-7.1261
X6.2913Y-5.5669
X6.2914Y-5.2509
X6.3287Y-2.9793
X6.3387Y-7.3484
X6.36Y-8.565
X6.3768Y-9.3785
X6.3789Y-7.1546
X6.3819Y-5.1988
X6.383Y-8.372
X6.405Y-3.9277
X6.4185Y-8.5755
X6.4383Y-4.7743
X6.4449Y-6.8119
X6.4608Y-5.1703
X6.4718Y-7.8995
X6.4728Y-7.3825
X6.4826Y-8.5846
X6.4843Y-4.6772
X6.5Y-2.3178
X6.5Y-4.5315
X6.5079Y-6.386
X6.5158Y-5.1073
X6.5205Y-8.298
X6.5276Y-3.628
X6.5292Y-4.1785
X6.5292Y-4.2222
X6.5395Y-8.199
X6.542Y-8.847
X6.5502Y-2.9695
X6.5508Y-4.6285
X6.5551Y-3.7205
X6.5551Y-4.5512
X6.557Y-8.555
X6.5588Y-4.1414
X6.5768Y-5.9362
X6.582Y-8.521
X6.5864Y-8.4686
X6.5866Y-5.0827
X6.5984Y-2.9695
X6.6165Y-5.3213
X6.6248Y-7.8125
X6.6258Y-6.8395
X6.6258Y-7.4255
X6.629Y-8.894
X6.6299Y-5.0039
X6.6407Y-3.5856
X6.6479Y-8.4197
X6.6808Y-9.3865
X6.689Y-2.3189
X6.7383Y-4.1285
X6.7441Y-2.3189
X6.7767Y-7.3484
X6.7913Y-8.9694
X6.8249Y-7.1546
X6.8337Y-5.0915
X6.8346Y-5.5197
X6.8386Y-5.438
X6.8448Y-9.3865
X6.8661Y-5.5512
X6.8778Y-7.0975
X6.8918Y-2.9695
X6.9134Y-3.0679
X6.9248Y-4.3606
X6.9252Y-5.3386
X6.9263Y-7.1261
X6.9408Y-5.5395
X6.9448Y-7.1925
X6.9588Y-7.0405
X6.9764Y-3.1925
X6.9764Y-3.2431
X6.9783Y-3.2929
X6.9848Y-4.0606
X6.9861Y-6.0039
X6.988Y-5.836
X6.9942Y-7.221
X6.9988Y-9.3765
X7.0059Y-5.1781
X7.0152Y-7.011
X7.0152Y-7.069
X7.0325Y-3.877
X7.0335Y-3.5469
X7.0344Y-3.0354
X7.044Y-5.974
X7.0448Y-6.9165
X7.062Y-3.627
X7.0893Y-6.954
X7.0915Y-3.7746
X7.1093Y-5.1407
X7.111Y-6.122
X7.1418Y-6.7845
X7.1448Y-6.9825
X7.1486Y-5.2195
X7.1565Y-2.3209
X7.1568Y-9.3685
X7.1805Y-6.2825
X7.1933Y-7.011
X7.2087Y-5.4377
X7.2087Y-5.87
X7.2125Y-5.974
X7.2402Y-4.4016
X7.241Y-6.217
X7.2428Y-7.0405
X7.2753Y-6.268
X7.279Y-6.77
X7.2795Y-5.3386
X7.2942Y-7.069
X7.3108Y-9.3745
X7.315Y-5.4882
X7.315Y-6.167
X7.3437Y-7.0975
X7.3474Y-3.7736
X7.3602Y-5.0433
X7.388Y-6.815
X7.389Y-6.018
X7.3943Y-7.1261
X7.4427Y-7.1546
X7.455Y-5.769
X7.4688Y-9.3845
X7.4835Y-5.9183
X7.4835Y-6.7638
X7.4977Y-5.6885
X7.5256Y-6.8327
X7.5354Y-5.6585
X7.5453Y-7.3484
X7.6085Y-7.4255
X7.6239Y-9.3693
X7.6567Y-4.0106
X7.6618Y-5.4701
X7.662Y-7.271
X7.7284Y-4.1088
X7.7379Y-4.9106
X7.7659Y-4.811
X7.7723Y-6.954
X7.7788Y-9.3485
X7.7836Y-4.711
X7.7854Y-8.875
X7.7982Y-6.9835
X7.8013Y-4.611
X7.8183Y-4.511
X7.8262Y-7.0492
X7.8525Y-4.411
X7.8542Y-7.1212
X7.855Y-9.188
X7.8708Y-5.5185
X7.8708Y-6.3185
X7.8762Y-7.1908
X7.8883Y-4.311
X7.9037Y-7.2732
X7.9058Y-6.3685
X7.9072Y-5.5885
X7.9183Y-4.211
X7.9322Y-7.3632
X7.9358Y-6.4185
X7.9369Y-9.3963
X7.9393Y-5.5585
X7.9449Y-4.4606
X7.9496Y-4.6606
X7.9496Y-4.8614
X7.9504Y-4.5606
X7.9575Y-4.7606
X7.9608Y-7.4745
X7.9708Y-5.6235
X7.9708Y-6.4685
X8.0058Y-6.5185
X8.0908Y-9.3885
X8.0942Y-4.0111
X8.1004Y-5.0433
X8.1028Y-9.0425
X8.2165Y-8.5089
X8.2165Y-9.1299
X8.288Y-5.027
X8.3478Y-9.3045
X8.4035Y-3.8091
X8.467Y-2.618
X8.5208Y-7.0185
X8.527Y-3.973
X8.5495Y-6.9723
X8.567Y-6.9185
X8.5787Y-7.5276
X8.5847Y-6.8713
X8.5915Y-3.8996
X8.6024Y-4.6031
X8.6024Y-6.8185
X8.616Y-3.59
X8.6201Y-4.6382
X8.6201Y-6.7685
X8.6339Y-4.0827
X8.6378Y-4.6734
X8.6378Y-6.7185
X8.6555Y-4.7085
X8.6555Y-6.6685
X8.6732Y-6.6245
X8.6808Y-4.7405
X8.6909Y-4.7803
X8.6909Y-6.5725
X8.7086Y-6.5185
X8.717Y-4.8107
X8.7263Y-4.8495
X8.7263Y-6.4685
X8.744Y-6.4142
X8.7448Y-7.431
X8.7458Y-7.7335
X8.7504Y-4.8806
X8.7508Y-6.8005
X8.7552Y-8.0243
X8.7617Y-4.9197
X8.7617Y-6.3685
X8.7694Y-3.6352
X8.7793Y-6.3185
X8.7887Y-8.9357
X8.7908Y-4.9465
X8.7913Y-8.2835
X8.797Y-6.281
X8.7996Y-3.7157
X8.8048Y-4.9885
X8.8147Y-5.6135
X8.8208Y-7.4595
X8.8215Y-8.1243
X8.8348Y-3.5925
X8.8468Y-6.8465
X8.8628Y-3.6265
X8.875Y-5.3005
X8.875Y-5.7735
X8.8752Y-3.8445
X8.8752Y-5.2465
X8.9008Y-7.5935
X8.9308Y-5.5685
X8.9408Y-7.4772
X8.9608Y-5.4445
X8.9608Y-5.6205
X8.9908Y-5.6685
X8.9908Y-7.4595
X9.0215Y-5.3622
X9.0328Y-5.3245
X9.0388Y-5.7185
X9.0408Y-7.4595
X9.0515Y-5.2846
X9.0764Y-6.7808
X9.0768Y-5.8185
X9.0777Y-6.8465
X9.0952Y-5.288
X9.1396Y-5.1657
X9.1404Y-5.2928
X9.15Y-7.2144
X9.1693Y-4.1496
X9.1883Y-5.3004
X9.1908Y-7.2429
X9.1984Y-4.1945
X9.2268Y-3.4534
X9.2348Y-5.5785
X9.2368Y-5.2985
X9.2408Y-7.2715
X9.2768Y-4.5225
X9.2874Y-3.4646
X9.2908Y-7.3
X9.3068Y-5.1985
X9.3128Y-5.3005
X9.3148Y-5.2605
X9.3188Y-5.4265
X9.3408Y-7.3285
X9.3588Y-4.2315
X9.3588Y-5.169
X9.3648Y-5.4125
X9.3908Y-7.3635
X9.3988Y-5.3925
X9.4068Y-5.1975
X9.4288Y-4.1955
X9.4308Y-5.3645
X9.4368Y-6.7225
X9.4372Y-7.39
X9.4568Y-3.7835
X9.4908Y-7.4185
X9.4988Y-7.1845
X9.5468Y-7.6125
X9.5538Y-7.1535
X9.5588Y-5.163
X9.5928Y-5.3545
X9.6058Y-7.1235
X9.6329Y-7.9341
X9.6372Y-7.095
X9.6568Y-4.7415
X9.7008Y-6.5645
X9.7008Y-7.0635
X9.7068Y-4.7095
X9.7289Y-9.4247
X9.7343Y-5.1984
X9.7508Y-6.7769
X9.7508Y-7.6205
X9.7518Y-4.7745
X9.7588Y-3.6325
X9.7688Y-8.2245
X9.7688Y-8.2765
X9.8068Y-4.6825
X9.8327Y-5.2756
X9.8448Y-3.5525
X9.8568Y-4.8115
X9.8701Y-8.3592
X9.8803Y-7.035
X9.9016Y-5.4134
X9.9028Y-4.6255
X9.9104Y-8.3789
X9.9195Y-3.3325
X9.9308Y-7.0065
X9.9493Y-8.4099
X9.9568Y-4.8495
X9.9606Y-9.0315
X9.9702Y-6.9779
X9.9722Y-8.4419
X9.9908Y-5.4865
X10.0008Y-8.4717
X10.0068Y-4.1685
X10.0225Y-5.4047
X10.0308Y-8.5007
X10.0415Y-6.9494
X10.0518Y-4.8785
X10.0608Y-3.1625
X10.0858Y-7.8835
X10.0868Y-8.2245
X10.1008Y-6.9425
X10.1108Y-4.6585
X10.1188Y-3.5005
X10.1368Y-7.9985
X10.1508Y-6.9125
X10.1568Y-3.5913
X10.1568Y-4.9185
X10.1568Y-5.1445
X10.1575Y-7.7145
X10.1575Y-7.8625
X10.1614Y-3.3583
X10.1803Y-8.5227
X10.1879Y-3.3966
X10.1988Y-6.9465
X10.2008Y-8.2085
X10.2058Y-7.6035
X10.2273Y-4.948
X10.2415Y-6.9073
X10.244Y-8.0085
X10.2528Y-6.6225
X10.2568Y-5.1918
X10.261Y-8.297
X10.2638Y-3.5118
X10.3028Y-6.9085
X10.3088Y-5.7445
X10.3268Y-8.9577
X10.3308Y-7.5135
X10.3488Y-6.8805
X10.3568Y-5.1918
X10.3583Y-3.4921
X10.3583Y-8.5492
X10.3868Y-6.5445
X10.3988Y-6.8725
X10.4068Y-5.1918
X10.4291Y-8.9803
X10.4331Y-5.8005
X10.4333Y-7.447
X10.4388Y-6.8065
X10.4568Y-3.6045
X10.4568Y-5.2345
X10.4858Y-8.5002
X10.5068Y-5.2203
X10.5148Y-8.0085
X10.5215Y-8.4705
X10.5308Y-7.4785
X10.5568Y-5.2545
X10.5591Y-5.7047
X10.5606Y-3.4583
X10.5688Y-6.7385
X10.5808Y-7.2135
X10.5808Y-8.4385
X10.6068Y-5.2488
X10.6299Y-3.3858
X10.6299Y-9.0748
X10.6308Y-7.2429
X10.6308Y-8.4142
X10.6568Y-5.2801
X10.6798Y-7.2715
X10.6808Y-8.4185
X10.7283Y-8.9291
X10.7308Y-7.3
X10.7308Y-8.3885
X10.7468Y-3.9165
X10.762Y-7.7199
X10.7648Y-4.6105
X10.7728Y-3.4685
X10.775Y-7.757
X10.7803Y-8.62
X10.7808Y-7.3285
X10.7808Y-8.3585
X10.7835Y-7.8622
X10.8004Y-6.103
X10.8021Y-6.1525
X10.8031Y-6.2874
X10.8268Y-3.8615
X10.8307Y-8.137
X10.8308Y-7.3615
X10.8308Y-8.3285
X10.835Y-6.3152
X10.8358Y-5.902
X10.8358Y-5.9525
X10.8386Y-5.5512
X10.8407Y-5.8525
X10.8527Y-6.3505
X10.8704Y-6.3858
X10.874Y-4.6732
X10.8803Y-8.6377
X10.8808Y-7.3885
X10.8893Y-5.472
X10.9213Y-9.4055
X10.9228Y-5.5005
X10.9266Y-8.5629
X10.9291Y-8.9252
X10.9308Y-7.4185
X10.9513Y-5.4031
X10.9513Y-5.4425
X10.964Y-7.538
X10.9803Y-8.656
X11.006Y-7.537
X11.0188Y-5.8085
X11.0315Y-8.9252
X11.032Y-8.6058
X11.0328Y-5.7065
X11.0748Y-7.6614
X11.0803Y-8.6827
X11.0851Y-5.5188
X11.0866Y-9.3701
X11.1117Y-7.1835
X11.1299Y-8.6496
X11.1374Y-7.1537
X11.1417Y-8.9213
X11.1637Y-7.1245
X11.1887Y-7.094
X11.2135Y-7.0635
X11.2445Y-7.035
X11.248Y-9.3661
X11.2548Y-4.2562
X11.2803Y-7.0065
X11.3159Y-6.9779
X11.333Y-8.5085
X11.3625Y-8.5435
X11.406Y-7.509
X11.407Y-8.215
X11.4094Y-9.4016
X11.44Y-7.478
X11.449Y-7.91
X11.4695Y-7.2135
X11.4759Y-8.007
X11.477Y-7.602
X11.4843Y-8.063
X11.4858Y-6.8885
X11.5022Y-7.2429
X11.507Y-7.56
X11.5237Y-7.447
X11.546Y-5.288
X11.5808Y-7.4185
X11.6108Y-7.3885
X11.6422Y-7.36
X11.6708Y-7.3285
X11.6993Y-7.3
X11.7293Y-7.2715
X11.7458Y-7.4185
X11.7602Y-7.2429
X11.7908Y-7.2135
X11.8961Y-7.3
X11.8978Y-7.1887
X11.9018Y-8.5435
X11.9058Y-6.9779
X11.9074Y-7.035
X11.912Y-7.152
X11.919Y-7.0947
X11.9278Y-7.3233
X11.9428Y-7.0065
X11.9458Y-7.0635
X11.9458Y-7.1235
X11.9528Y-8.5085
X12.0028Y-8.4785
X12.0148Y-4.5856
X12.0528Y-8.4485
X12.1028Y-8.4185
X12.1528Y-8.3885
X12.154Y-6.732
X12.2028Y-8.3285
X12.2348Y-8.3545
X12.271Y-6.831
X12.6048Y-3.0525
X12.7028Y-4.8425
X12.7335Y-6.085
T2
X6.5522Y-3.3504
X6.5522Y-3.5325
X6.5531Y-3.1693
X6.6112Y-3.3504
X6.6112Y-3.5325
X6.6122Y-3.1693
T3
X3.4768Y-5.4317
X3.4768Y-5.7317
X3.687Y-8.753
X3.987Y-8.753
X4.107Y-8.755
X4.407Y-8.755
X5.4848Y-7.7925
X5.4848Y-8.0925
X7.528Y-2.917
X7.825Y-2.469
X7.825Y-2.769
X7.828Y-2.917
X7.914Y-2.47
X7.914Y-2.77
X8.019Y-2.469
X8.019Y-2.769
X8.0866Y-8.4774
X8.0866Y-8.7774
X8.093Y-2.919
X8.106Y-2.469
X8.106Y-2.769
X8.393Y-2.919
X11.4236Y-5.8835
X11.4236Y-6.1835
T4
X3.487Y-6.679
X3.487Y-6.779
X3.487Y-6.879
X3.487Y-6.979
X3.487Y-7.079
X3.487Y-7.179
X3.487Y-7.279
X3.487Y-7.379
X3.487Y-7.479
X3.756Y-7.479
X3.756Y-7.579
X3.756Y-7.679
X3.756Y-7.779
X3.756Y-7.879
X3.756Y-7.979
X3.756Y-8.079
X3.756Y-8.179
X3.756Y-8.279
X3.756Y-8.379
X3.756Y-8.479
X3.756Y-8.579
X3.7648Y-3.8435
X3.7648Y-3.9435
X3.7648Y-4.0435
X3.7648Y-4.1435
X3.7648Y-4.2435
X3.7648Y-4.3435
X3.7648Y-4.4435
X3.7648Y-4.5435
X3.7648Y-4.6435
X3.7648Y-4.7435
X3.7648Y-4.8435
X3.7648Y-4.9435
X3.7648Y-5.0435
X3.7648Y-5.1435
X3.7648Y-5.2435
X3.7648Y-5.3435
X3.7648Y-5.4435
X3.7648Y-5.5435
X3.7648Y-5.6435
X3.7648Y-5.7435
X3.7648Y-5.8435
X3.7648Y-5.9435
X3.7648Y-6.0435
X3.7648Y-6.1435
X3.7648Y-6.2566
X3.7648Y-6.4535
X3.7913Y-3.1378
X3.7913Y-3.3346
X3.9213Y-3.2791
X3.9213Y-3.5791
X4.0213Y-3.2791
X4.0213Y-3.5791
X4.1213Y-3.2791
X4.1213Y-3.5791
X4.2213Y-3.2791
X4.2213Y-3.5791
X4.3213Y-3.2791
X4.3213Y-3.5791
X4.356Y-7.479
X4.356Y-7.579
X4.356Y-7.679
X4.356Y-7.779
X4.356Y-7.879
X4.356Y-7.979
X4.356Y-8.079
X4.356Y-8.179
X4.356Y-8.279
X4.356Y-8.379
X4.356Y-8.479
X4.356Y-8.579
X4.3648Y-3.8435
X4.3648Y-3.9435
X4.3648Y-4.0435
X4.3648Y-4.1435
X4.3648Y-4.2435
X4.3648Y-4.3435
X4.3648Y-4.4435
X4.3648Y-4.5435
X4.3648Y-4.6435
X4.3648Y-4.7435
X4.3648Y-4.8435
X4.3648Y-4.9435
X4.3648Y-5.0435
X4.3648Y-5.1435
X4.3648Y-5.2435
X4.3648Y-5.3435
X4.3648Y-5.4435
X4.3648Y-5.5435
X4.3648Y-5.6435
X4.3648Y-5.7435
X4.3648Y-5.8435
X4.3648Y-5.9435
X4.3648Y-6.0435
X4.3648Y-6.1435
X4.4213Y-3.2791
X4.4213Y-3.5791
X4.5213Y-3.2791
X4.5213Y-3.5791
X4.578Y-8.704
X4.578Y-9.004
X4.6038Y-7.6955
X4.6038Y-7.7955
X4.6038Y-7.8955
X4.6038Y-7.9955
X4.6038Y-8.0955
X4.6038Y-8.1955
X4.6213Y-3.2791
X4.6213Y-3.5791
X4.6535Y-6.8145
X4.678Y-8.704
X4.678Y-9.004
X4.7038Y-7.5955
X4.7038Y-7.6955
X4.7038Y-7.7955
X4.7038Y-7.8955
X4.7038Y-7.9955
X4.7038Y-8.0955
X4.7038Y-8.1955
X4.7038Y-8.2955
X4.7213Y-3.2791
X4.7213Y-3.5791
X4.7408Y-5.7185
X4.7408Y-5.8185
X4.7408Y-5.9185
X4.7408Y-6.0185
X4.7408Y-6.1185
X4.7408Y-6.2185
X4.7408Y-6.3185
X4.7408Y-6.4185
X4.7408Y-6.5185
X4.7593Y-3.1122
X4.778Y-8.704
X4.778Y-9.004
X4.8038Y-7.5955
X4.8038Y-7.6955
X4.8038Y-8.1955
X4.8038Y-8.2955
X4.8213Y-3.2791
X4.8213Y-3.5791
X4.8408Y-5.6185
X4.8408Y-5.7185
X4.8408Y-5.8185
X4.8408Y-5.9185
X4.8408Y-6.0185
X4.8408Y-6.1185
X4.8408Y-6.2185
X4.8408Y-6.3185
X4.8408Y-6.4185
X4.8408Y-6.5185
X4.8408Y-6.6185
X4.8504Y-6.8145
X4.8593Y-3.1122
X4.878Y-8.704
X4.878Y-9.004
X4.9038Y-7.5955
X4.9038Y-7.6955
X4.9038Y-8.1955
X4.9038Y-8.2955
X4.9408Y-5.6185
X4.9408Y-5.7185
X4.9408Y-6.5185
X4.9408Y-6.6185
X4.9687Y-3.3593
X4.9689Y-3.2352
X4.9705Y-3.1132
X4.978Y-8.704
X4.978Y-9.004
X4.9843Y-3.4892
X4.9843Y-3.686
X5.0038Y-7.5955
X5.0038Y-7.6955
X5.0038Y-8.1955
X5.0038Y-8.2955
X5.0408Y-5.6185
X5.0408Y-5.7185
X5.0408Y-6.5185
X5.0408Y-6.6185
X5.0687Y-3.3593
X5.0689Y-3.2352
X5.0705Y-3.1132
X5.0716Y-3.5285
X5.0716Y-3.6285
X5.0716Y-3.7285
X5.0716Y-3.8285
X5.0716Y-3.9285
X5.0716Y-4.0285
X5.0716Y-4.1285
X5.0716Y-4.2285
X5.0716Y-4.3285
X5.0716Y-4.4285
X5.0716Y-4.5285
X5.0716Y-4.6285
X5.0716Y-4.7285
X5.0716Y-4.8285
X5.0716Y-4.9285
X5.0716Y-5.0285
X5.078Y-8.704
X5.078Y-9.004
X5.1038Y-7.5955
X5.1038Y-7.6955
X5.1038Y-8.1955
X5.1038Y-8.2955
X5.1408Y-5.6185
X5.1408Y-5.7185
X5.1408Y-6.5185
X5.1408Y-6.6185
X5.178Y-8.704
X5.178Y-9.004
X5.2038Y-7.5955
X5.2038Y-7.6955
X5.2038Y-7.7955
X5.2038Y-7.8955
X5.2038Y-7.9955
X5.2038Y-8.0955
X5.2038Y-8.1955
X5.2038Y-8.2955
X5.2408Y-5.6185
X5.2408Y-5.7185
X5.2408Y-6.5185
X5.2408Y-6.6185
X5.255Y-9.199
X5.3038Y-7.6955
X5.3038Y-7.7955
X5.3038Y-7.8955
X5.3038Y-7.9955
X5.3038Y-8.0955
X5.3038Y-8.1955
X5.3408Y-5.6185
X5.3408Y-5.7185
X5.3408Y-6.5185
X5.3408Y-6.6185
X5.355Y-9.199
X5.3716Y-3.5285
X5.3716Y-3.6285
X5.3716Y-3.7285
X5.3716Y-3.8285
X5.3716Y-3.9285
X5.3716Y-4.0285
X5.3716Y-4.1285
X5.3716Y-4.2285
X5.3716Y-4.3285
X5.3716Y-4.4285
X5.3716Y-4.5285
X5.3716Y-4.6285
X5.3716Y-4.7285
X5.3716Y-4.8285
X5.3716Y-4.9285
X5.3716Y-5.0285
X5.4408Y-5.6185
X5.4408Y-5.7185
X5.4408Y-6.5185
X5.4408Y-6.6185
X5.4928Y-8.2245
X5.4928Y-8.4214
X5.5408Y-5.6185
X5.5408Y-5.7185
X5.5408Y-6.5185
X5.5408Y-6.6185
X5.5608Y-3.7285
X5.5608Y-3.8285
X5.5608Y-3.9285
X5.5608Y-4.0285
X5.5608Y-4.1285
X5.5608Y-4.2285
X5.5608Y-4.3285
X5.5608Y-4.4285
X5.5608Y-4.5285
X5.5608Y-4.6285
X5.5608Y-4.7285
X5.5608Y-4.8285
X5.5608Y-4.9285
X5.5608Y-5.0285
X5.6408Y-5.6185
X5.6408Y-5.7185
X5.6408Y-5.8185
X5.6408Y-5.9185
X5.6408Y-6.0185
X5.6408Y-6.1185
X5.6408Y-6.2185
X5.6408Y-6.3185
X5.6408Y-6.4185
X5.6408Y-6.5185
X5.6408Y-6.6185
X5.6788Y-7.698
X5.6788Y-7.798
X5.6788Y-7.898
X5.6788Y-7.998
X5.6788Y-8.098
X5.6788Y-8.198
X5.7408Y-5.7185
X5.7408Y-5.8185
X5.7408Y-5.9185
X5.7408Y-6.0185
X5.7408Y-6.1185
X5.7408Y-6.2185
X5.7408Y-6.3185
X5.7408Y-6.4185
X5.7408Y-6.5185
X5.7788Y-7.598
X5.7788Y-7.698
X5.7788Y-7.798
X5.7788Y-7.898
X5.7788Y-7.998
X5.7788Y-8.098
X5.7788Y-8.198
X5.7788Y-8.298
X5.8053Y-2.4291
X5.8053Y-2.5291
X5.8053Y-2.6291
X5.8053Y-2.7291
X5.8053Y-2.8291
X5.8053Y-2.9291
X5.8053Y-3.0291
X5.8788Y-7.598
X5.8788Y-7.698
X5.8788Y-8.198
X5.8788Y-8.298
X5.9409Y-3.1815
X5.9409Y-3.3783
X5.9409Y-3.4687
X5.9409Y-3.5687
X5.9788Y-7.598
X5.9788Y-7.698
X5.9788Y-8.198
X5.9788Y-8.298
X6.0028Y-5.9085
X6.0028Y-6.1054
X6.0669Y-3.1823
X6.0669Y-3.3791
X6.0669Y-3.4687
X6.0669Y-3.5687
X6.0788Y-7.598
X6.0788Y-7.698
X6.0788Y-8.198
X6.0788Y-8.298
X6.1053Y-2.4291
X6.1053Y-2.5291
X6.1053Y-2.6291
X6.1053Y-2.7291
X6.1053Y-2.8291
X6.1053Y-2.9291
X6.1053Y-3.0291
X6.1608Y-3.7285
X6.1608Y-3.8285
X6.1608Y-3.9285
X6.1608Y-4.0285
X6.1608Y-4.1285
X6.1608Y-4.2285
X6.1608Y-4.3285
X6.1608Y-4.4285
X6.1608Y-4.5285
X6.1608Y-4.6285
X6.1608Y-4.7285
X6.1608Y-4.8285
X6.1608Y-4.9285
X6.1608Y-5.0285
X6.1788Y-7.598
X6.1788Y-7.698
X6.1788Y-8.198
X6.1788Y-8.298
X6.1929Y-3.1839
X6.1929Y-3.3807
X6.1929Y-3.4687
X6.1929Y-3.5687
X6.2258Y-5.7335
X6.2258Y-5.8335
X6.2258Y-5.9335
X6.2258Y-6.0335
X6.2258Y-6.1335
X6.2258Y-6.2335
X6.2362Y-2.7323
X6.2362Y-2.8323
X6.257Y-2.4478
X6.257Y-2.5478
X6.257Y-2.6478
X6.2723Y-3.7285
X6.2788Y-7.598
X6.2788Y-7.698
X6.2788Y-7.798
X6.2788Y-7.898
X6.2788Y-7.998
X6.2788Y-8.098
X6.2788Y-8.198
X6.2788Y-8.298
X6.3258Y-5.6335
X6.3258Y-5.7335
X6.3258Y-5.8335
X6.3258Y-5.9335
X6.3258Y-6.0335
X6.3258Y-6.1335
X6.3258Y-6.2335
X6.3258Y-6.3335
X6.328Y-2.7318
X6.328Y-2.8318
X6.3308Y-3.8785
X6.3308Y-3.9785
X6.3308Y-4.0785
X6.3308Y-4.1785
X6.3308Y-4.2785
X6.3308Y-4.3785
X6.3308Y-4.4785
X6.3308Y-4.5785
X6.3308Y-4.6785
X6.3308Y-4.7785
X6.3439Y-3.5305
X6.3469Y-3.3504
X6.3488Y-3.1693
X6.3788Y-7.698
X6.3788Y-7.798
X6.3788Y-7.898
X6.3788Y-7.998
X6.3788Y-8.098
X6.3788Y-8.198
X6.4134Y-2.7323
X6.4134Y-2.8323
X6.4258Y-5.6335
X6.4258Y-5.7335
X6.4258Y-6.2335
X6.4258Y-6.3335
X6.4439Y-3.5305
X6.4456Y-2.4478
X6.4456Y-2.5478
X6.4456Y-2.6478
X6.4469Y-3.3504
X6.4488Y-3.1693
X6.4692Y-3.7285
X6.5039Y-2.7328
X6.5039Y-2.8328
X6.5258Y-5.6335
X6.5258Y-5.7335
X6.5258Y-6.2335
X6.5258Y-6.3335
X6.5728Y-7.9436
X6.5728Y-8.1405
X6.5984Y-2.7362
X6.5984Y-2.8362
X6.6258Y-5.6335
X6.6258Y-5.7335
X6.6258Y-6.2335
X6.6258Y-6.3335
X6.6308Y-3.8785
X6.6308Y-3.9785
X6.6308Y-4.0785
X6.6308Y-4.1785
X6.6308Y-4.2785
X6.6308Y-4.3785
X6.6308Y-4.4785
X6.6308Y-4.5785
X6.6308Y-4.6785
X6.6308Y-4.7785
X6.6348Y-2.4478
X6.6348Y-2.5478
X6.6348Y-2.6478
X6.6939Y-2.7328
X6.6939Y-2.8328
X6.7258Y-5.6335
X6.7258Y-5.7335
X6.7258Y-6.2335
X6.7258Y-6.3335
X6.7874Y-2.7323
X6.7874Y-2.8323
X6.7888Y-8.5945
X6.7888Y-8.8945
X6.8239Y-2.4478
X6.8239Y-2.5478
X6.8239Y-2.6478
X6.8258Y-5.6335
X6.8258Y-5.7335
X6.8258Y-5.8335
X6.8258Y-5.9335
X6.8258Y-6.0335
X6.8258Y-6.1335
X6.8258Y-6.2335
X6.8258Y-6.3335
X6.8438Y-7.699
X6.8438Y-7.799
X6.8438Y-7.899
X6.8438Y-7.999
X6.8438Y-8.099
X6.8438Y-8.199
X6.8479Y-3.6606
X6.8479Y-3.7606
X6.8479Y-3.8606
X6.8479Y-3.9606
X6.8479Y-4.0606
X6.8479Y-4.1606
X6.8479Y-4.2606
X6.8479Y-4.3606
X6.8479Y-4.4606
X6.8479Y-4.5606
X6.8479Y-4.6606
X6.8479Y-4.7606
X6.8479Y-4.8606
X6.8479Y-4.9606
X6.8799Y-2.7328
X6.8799Y-2.8328
X6.8888Y-8.5945
X6.8888Y-8.8945
X6.9258Y-5.7335
X6.9258Y-5.8335
X6.9258Y-5.9335
X6.9258Y-6.0335
X6.9258Y-6.1335
X6.9258Y-6.2335
X6.9438Y-7.599
X6.9438Y-7.699
X6.9438Y-7.799
X6.9438Y-7.899
X6.9438Y-7.999
X6.9438Y-8.099
X6.9438Y-8.199
X6.9438Y-8.299
X6.9888Y-8.5945
X6.9888Y-8.8945
X7.0061Y-2.3711
X7.0061Y-2.4711
X7.0061Y-2.5711
X7.0061Y-2.6711
X7.0061Y-2.7711
X7.0061Y-2.8711
X7.0061Y-2.9711
X7.0438Y-7.599
X7.0438Y-7.699
X7.0438Y-8.199
X7.0438Y-8.299
X7.0888Y-8.5945
X7.0888Y-8.8945
X7.1438Y-7.599
X7.1438Y-7.699
X7.1438Y-8.199
X7.1438Y-8.299
X7.1888Y-8.5945
X7.1888Y-8.8945
X7.1998Y-3.0915
X7.2438Y-7.599
X7.2438Y-7.699
X7.2438Y-8.199
X7.2438Y-8.299
X7.2888Y-8.5945
X7.2888Y-8.8945
X7.3061Y-2.3711
X7.3061Y-2.4711
X7.3061Y-2.5711
X7.3061Y-2.6711
X7.3061Y-2.7711
X7.3061Y-2.8711
X7.3061Y-2.9711
X7.3438Y-7.599
X7.3438Y-7.699
X7.3438Y-8.199
X7.3438Y-8.299
X7.3888Y-8.5945
X7.3888Y-8.8945
X7.3967Y-3.0915
X7.4438Y-7.599
X7.4438Y-7.699
X7.4438Y-7.799
X7.4438Y-7.899
X7.4438Y-7.999
X7.4438Y-8.099
X7.4438Y-8.199
X7.4438Y-8.299
X7.4479Y-3.6606
X7.4479Y-3.7606
X7.4479Y-3.8606
X7.4479Y-3.9606
X7.4479Y-4.0606
X7.4479Y-4.1606
X7.4479Y-4.2606
X7.4479Y-4.3606
X7.4479Y-4.4606
X7.4479Y-4.5606
X7.4479Y-4.6606
X7.4479Y-4.7606
X7.4479Y-4.8606
X7.4479Y-4.9606
X7.4888Y-8.5945
X7.4888Y-8.8945
X7.4961Y-3.5118
X7.497Y-3.1417
X7.497Y-3.2648
X7.497Y-3.3878
X7.5321Y-2.804
X7.533Y-2.536
X7.533Y-2.68
X7.5346Y-2.3673
X7.5438Y-7.699
X7.5438Y-7.799
X7.5438Y-7.899
X7.5438Y-7.999
X7.5438Y-8.099
X7.5438Y-8.199
X7.5888Y-8.5945
X7.5888Y-8.8945
X7.5929Y-3.6606
X7.5929Y-3.7606
X7.5929Y-3.8606
X7.5929Y-3.9606
X7.5929Y-4.0606
X7.5929Y-4.1606
X7.5929Y-4.2606
X7.5929Y-4.3606
X7.5929Y-4.4606
X7.5929Y-4.5606
X7.5929Y-4.6606
X7.5929Y-4.7606
X7.5929Y-4.8606
X7.5929Y-4.9606
X7.633Y-2.536
X7.6888Y-8.5945
X7.6888Y-8.8945
X7.6929Y-3.5118
X7.6939Y-3.1417
X7.6939Y-3.2648
X7.6939Y-3.3878
X7.729Y-2.804
X7.7299Y-2.68
X7.7315Y-2.3673
X7.733Y-2.536
X7.8161Y-3.0098
X7.8161Y-3.2067
X7.8911Y-7.6343
X7.8911Y-7.7343
X7.8911Y-7.8343
X7.8911Y-7.9343
X7.8911Y-8.0343
X7.8911Y-8.1343
X7.8911Y-8.2343
X7.9371Y-3.0107
X7.9371Y-3.2075
X7.9939Y-8.3605
X8.0611Y-3.0107
X8.0611Y-3.2075
X8.1841Y-3.0108
X8.1841Y-3.2077
X8.1908Y-8.3605
X8.191Y-2.69
X8.1911Y-7.6343
X8.1911Y-7.7343
X8.1911Y-7.8343
X8.1911Y-7.9343
X8.1911Y-8.0343
X8.1911Y-8.1343
X8.1911Y-8.2343
X8.1921Y-2.812
X8.1929Y-3.6606
X8.1929Y-3.7606
X8.1929Y-3.8606
X8.1929Y-3.9606
X8.1929Y-4.0606
X8.1929Y-4.1606
X8.1929Y-4.2606
X8.1929Y-4.3606
X8.1929Y-4.4606
X8.1929Y-4.5606
X8.1929Y-4.6606
X8.1929Y-4.7606
X8.1929Y-4.8606
X8.1929Y-4.9606
X8.195Y-2.538
X8.1972Y-2.3622
X8.2573Y-5.3935
X8.264Y-3.021
X8.2661Y-3.104
X8.295Y-2.538
X8.3879Y-2.69
X8.389Y-2.812
X8.3941Y-2.3622
X8.395Y-2.538
X8.4542Y-5.3935
X8.4567Y-8.8858
X8.4567Y-9.0827
X8.4609Y-3.021
X8.463Y-3.104
X8.5882Y-8.7835
X8.5882Y-9.0835
X8.6417Y-7.6417
X8.6417Y-7.7417
X8.6417Y-7.8417
X8.6417Y-7.9417
X8.6417Y-8.0417
X8.6417Y-8.1417
X8.6417Y-8.2417
X8.6417Y-8.3417
X8.6417Y-8.4417
X8.6882Y-8.7835
X8.6882Y-9.0835
X8.7882Y-8.7835
X8.7882Y-9.0835
X8.8882Y-8.7835
X8.8882Y-9.0835
X8.8908Y-7.6835
X8.8908Y-7.7835
X8.8908Y-7.8835
X8.8908Y-7.9835
X8.8908Y-8.0835
X8.8908Y-8.1835
X8.8928Y-8.4865
X8.9882Y-8.7835
X8.9882Y-9.0835
X8.9908Y-7.5835
X8.9908Y-7.6835
X8.9908Y-7.7835
X8.9908Y-7.8835
X8.9908Y-7.9835
X8.9908Y-8.0835
X8.9908Y-8.1835
X8.9908Y-8.2835
X9.0882Y-8.7835
X9.0882Y-9.0835
X9.0896Y-8.4865
X9.0908Y-7.5835
X9.0908Y-7.6835
X9.0908Y-8.1835
X9.0908Y-8.2835
X9.1882Y-8.7835
X9.1882Y-9.0835
X9.1908Y-7.5835
X9.1908Y-7.6835
X9.1908Y-8.1835
X9.1908Y-8.2835
X9.2068Y-3.7015
X9.2068Y-4.3015
X9.2068Y-4.4585
X9.2068Y-5.0585
X9.2348Y-6.3025
X9.2348Y-6.4994
X9.2882Y-8.7835
X9.2882Y-9.0835
X9.2908Y-7.5835
X9.2908Y-7.6835
X9.2908Y-8.1835
X9.2908Y-8.2835
X9.3068Y-3.7015
X9.3068Y-4.3015
X9.3068Y-4.4585
X9.3068Y-5.0585
X9.3882Y-8.7835
X9.3882Y-9.0835
X9.3908Y-7.5835
X9.3908Y-7.6835
X9.3908Y-8.1835
X9.3908Y-8.2835
X9.4008Y-5.6525
X9.4008Y-5.7525
X9.4008Y-5.8525
X9.4008Y-5.9525
X9.4008Y-6.0525
X9.4008Y-6.1525
X9.4008Y-6.2525
X9.4008Y-6.3525
X9.4008Y-6.4525
X9.4008Y-6.5525
X9.4008Y-6.6525
X9.4068Y-3.7015
X9.4068Y-4.3015
X9.4068Y-4.4585
X9.4068Y-5.0585
X9.4882Y-8.7835
X9.4882Y-9.0835
X9.4908Y-7.5835
X9.4908Y-7.6835
X9.4908Y-7.7835
X9.4908Y-7.8835
X9.4908Y-7.9835
X9.4908Y-8.0835
X9.4908Y-8.1835
X9.4908Y-8.2835
X9.5008Y-5.5525
X9.5008Y-5.6525
X9.5008Y-5.7525
X9.5008Y-5.8525
X9.5008Y-5.9525
X9.5008Y-6.0525
X9.5008Y-6.1525
X9.5008Y-6.2525
X9.5008Y-6.3525
X9.5008Y-6.4525
X9.5008Y-6.5525
X9.5008Y-6.6525
X9.5008Y-6.7525
X9.5068Y-3.7015
X9.5068Y-4.3015
X9.5068Y-4.4585
X9.5068Y-5.0585
X9.5908Y-7.6835
X9.5908Y-7.7835
X9.5908Y-7.8835
X9.5908Y-7.9835
X9.5908Y-8.0835
X9.5908Y-8.1835
X9.6008Y-5.5525
X9.6008Y-5.6525
X9.6008Y-6.6525
X9.6008Y-6.7525
X9.6068Y-3.7015
X9.6068Y-4.3015
X9.6068Y-4.4585
X9.6068Y-5.0585
X9.7008Y-5.5525
X9.7008Y-5.6525
X9.7008Y-6.6525
X9.7008Y-6.7525
X9.7068Y-3.7015
X9.7068Y-4.3015
X9.7068Y-4.4585
X9.7068Y-5.0585
X9.8008Y-5.5525
X9.8008Y-5.6525
X9.8008Y-6.6525
X9.8008Y-6.7525
X9.8068Y-3.7015
X9.8068Y-4.3015
X9.8068Y-4.4585
X9.8068Y-5.0585
X9.9008Y-5.5525
X9.9008Y-5.6525
X9.9008Y-6.6525
X9.9008Y-6.7525
X9.9068Y-3.7015
X9.9068Y-4.3015
X9.9068Y-4.4585
X9.9068Y-5.0585
X10.0008Y-5.5525
X10.0008Y-5.6525
X10.0008Y-6.6525
X10.0008Y-6.7525
X10.0068Y-3.7015
X10.0068Y-4.3015
X10.0068Y-4.4585
X10.0068Y-5.0585
X10.1008Y-5.5525
X10.1008Y-5.6525
X10.1008Y-6.6525
X10.1008Y-6.7525
X10.1068Y-3.7015
X10.1068Y-4.3015
X10.1068Y-4.4585
X10.1068Y-5.0585
X10.1108Y-7.5665
X10.1108Y-7.7634
X10.2008Y-5.5525
X10.2008Y-5.6525
X10.2008Y-6.6525
X10.2008Y-6.7525
X10.2068Y-3.7015
X10.2068Y-4.3015
X10.2068Y-4.4585
X10.2068Y-5.0585
X10.2808Y-7.6585
X10.2808Y-7.7585
X10.2808Y-7.8585
X10.2808Y-7.9585
X10.2808Y-8.0585
X10.2808Y-8.1585
X10.3008Y-5.5525
X10.3008Y-5.6525
X10.3008Y-6.6525
X10.3008Y-6.7525
X10.3068Y-3.7015
X10.3068Y-4.3015
X10.3068Y-4.4585
X10.3068Y-5.0585
X10.3808Y-7.5585
X10.3808Y-7.6585
X10.3808Y-7.7585
X10.3808Y-7.8585
X10.3808Y-7.9585
X10.3808Y-8.0585
X10.3808Y-8.1585
X10.3808Y-8.2585
X10.4008Y-5.5525
X10.4008Y-5.6525
X10.4008Y-6.6525
X10.4008Y-6.7525
X10.4068Y-3.7015
X10.4068Y-4.3015
X10.4068Y-4.4585
X10.4068Y-5.0585
X10.4808Y-7.5585
X10.4808Y-7.6585
X10.4808Y-8.1585
X10.4808Y-8.2585
X10.5008Y-5.5525
X10.5008Y-5.6525
X10.5008Y-5.7525
X10.5008Y-5.8525
X10.5008Y-5.9525
X10.5008Y-6.0525
X10.5008Y-6.1525
X10.5008Y-6.2525
X10.5008Y-6.3525
X10.5008Y-6.4525
X10.5008Y-6.5525
X10.5008Y-6.6525
X10.5008Y-6.7525
X10.5068Y-3.7015
X10.5068Y-4.3015
X10.5068Y-4.4585
X10.5068Y-5.0585
X10.5808Y-7.5585
X10.5808Y-7.6585
X10.5808Y-8.1585
X10.5808Y-8.2585
X10.6008Y-5.6525
X10.6008Y-5.7525
X10.6008Y-5.8525
X10.6008Y-5.9525
X10.6008Y-6.0525
X10.6008Y-6.1525
X10.6008Y-6.2525
X10.6008Y-6.3525
X10.6008Y-6.4525
X10.6008Y-6.5525
X10.6008Y-6.6525
X10.6068Y-3.7015
X10.6068Y-4.3015
X10.6068Y-4.4585
X10.6068Y-5.0585
X10.6808Y-7.5585
X10.6808Y-7.6585
X10.6808Y-8.1585
X10.6808Y-8.2585
X10.7068Y-3.7015
X10.7068Y-4.3015
X10.7068Y-4.4585
X10.7068Y-5.0585
X10.7808Y-7.5585
X10.7808Y-7.6585
X10.7808Y-8.1585
X10.7808Y-8.2585
X10.8268Y-4.1031
X10.8268Y-4.2999
X10.8348Y-4.8476
X10.8348Y-5.0445
X10.8808Y-7.5585
X10.8808Y-7.6585
X10.8808Y-7.7585
X10.8808Y-7.8585
X10.8808Y-7.9585
X10.8808Y-8.0585
X10.8808Y-8.1585
X10.8808Y-8.2585
X10.9808Y-7.6585
X10.9808Y-7.7585
X10.9808Y-7.8585
X10.9808Y-7.9585
X10.9808Y-8.0585
X10.9808Y-8.1585
X11.0111Y-4.604
X11.083Y-4.128
X11.083Y-4.428
X11.086Y-3.596
X11.086Y-3.896
X11.1108Y-6.0435
X11.1108Y-6.2356
X11.1608Y-5.6566
X11.1608Y-5.8535
X11.1608Y-6.4285
X11.1608Y-6.6254
X11.208Y-4.604
X11.2858Y-5.5885
X11.2858Y-5.6885
X11.2858Y-5.7885
X11.2858Y-5.8885
X11.2858Y-5.9885
X11.2858Y-6.0885
X11.2858Y-6.1885
X11.2858Y-6.2885
X11.2858Y-6.3885
X11.2858Y-6.4885
X11.2858Y-6.5885
X11.2858Y-6.6885
X11.2858Y-6.7885
X11.2858Y-6.8885
X11.2898Y-5.4585
X11.383Y-4.128
X11.383Y-4.428
X11.386Y-3.596
X11.386Y-3.896
X11.4866Y-5.4585
X11.4901Y-3.3185
X11.5528Y-7.66
X11.5528Y-7.76
X11.5528Y-7.86
X11.5528Y-7.96
X11.5528Y-8.06
X11.5528Y-8.16
X11.5885Y-3.3185
X11.6528Y-7.56
X11.6528Y-7.66
X11.6528Y-7.76
X11.6528Y-7.86
X11.6528Y-7.96
X11.6528Y-8.06
X11.6528Y-8.16
X11.6528Y-8.26
X11.6768Y-2.3596
X11.6768Y-2.5565
X11.6841Y-3.6205
X11.7258Y-4.6585
X11.7258Y-4.7585
X11.7258Y-4.8585
X11.7258Y-4.9585
X11.7258Y-5.0585
X11.7258Y-5.1585
X11.7258Y-5.2585
X11.7308Y-2.7151
X11.7308Y-2.8135
X11.7528Y-7.56
X11.7528Y-7.66
X11.7528Y-8.16
X11.7528Y-8.26
X11.7825Y-3.6205
X11.82Y-5.389
X11.8528Y-7.56
X11.8528Y-7.66
X11.8528Y-8.16
X11.8528Y-8.26
X11.8858Y-5.5885
X11.8858Y-5.6885
X11.8858Y-5.7885
X11.8858Y-5.8885
X11.8858Y-5.9885
X11.8858Y-6.0885
X11.8858Y-6.1885
X11.8858Y-6.2885
X11.8858Y-6.3885
X11.8858Y-6.4885
X11.8858Y-6.5885
X11.8858Y-6.6885
X11.8858Y-6.7885
X11.8858Y-6.8885
X11.9528Y-7.56
X11.9528Y-7.66
X11.9528Y-8.16
X11.9528Y-8.26
X12.0169Y-5.389
X12.0258Y-4.6585
X12.0258Y-4.7585
X12.0258Y-4.8585
X12.0258Y-4.9585
X12.0258Y-5.0585
X12.0258Y-5.1585
X12.0258Y-5.2585
X12.0528Y-7.56
X12.0528Y-7.66
X12.0528Y-8.16
X12.0528Y-8.26
X12.0608Y-2.7151
X12.0608Y-2.8135
X12.1528Y-7.56
X12.1528Y-7.66
X12.1528Y-7.76
X12.1528Y-7.86
X12.1528Y-7.96
X12.1528Y-8.06
X12.1528Y-8.16
X12.1528Y-8.26
X12.167Y-6.934
X12.167Y-7.034
X12.167Y-7.134
X12.167Y-7.234
X12.2528Y-7.66
X12.2528Y-7.76
X12.2528Y-7.86
X12.2528Y-7.96
X12.2528Y-8.06
X12.2528Y-8.16
X12.4648Y-8.1565
X12.4648Y-8.3534
X12.467Y-6.934
X12.467Y-7.034
X12.467Y-7.134
X12.467Y-7.234
T5
X3.438Y-9.241
X3.4793Y-5.3022
X3.5793Y-5.3022
X3.8Y-9.092
X3.838Y-9.241
X4.2Y-9.092
X5.1756Y-3.1122
X5.1766Y-3.2333
X5.1766Y-3.3642
X5.2756Y-3.1122
X5.2766Y-3.2333
X5.2766Y-3.3642
T6
X11.8312Y-2.3666
X12.0084Y-2.3666
T7
X3.4598Y-8.792
X3.4728Y-6.3505
X3.4728Y-6.4505
X3.4774Y-4.8287
X3.4774Y-4.9287
X3.4788Y-3.2045
X3.4788Y-3.3045
X3.4788Y-3.4045
X3.4788Y-3.5045
X3.4788Y-3.6045
X3.4808Y-3.8025
X3.4808Y-3.9025
X3.4808Y-4.0025
X3.4808Y-4.1025
X3.4808Y-4.2025
X3.4808Y-4.3025
X3.4808Y-4.4845
X3.4808Y-4.5845
X3.4808Y-4.6845
X3.4848Y-5.8305
X3.4848Y-5.9305
X3.4848Y-6.0305
X3.492Y-8.079
X3.492Y-8.179
X3.492Y-8.279
X3.492Y-8.379
X3.492Y-8.479
X3.492Y-8.579
X3.5598Y-8.792
X3.5774Y-4.8287
X3.5774Y-4.9287
X3.5788Y-3.2045
X3.5788Y-3.3045
X3.5788Y-3.4045
X3.5788Y-3.5045
X3.5788Y-3.6045
X3.625Y-6.68
X3.625Y-6.78
X3.625Y-6.88
X3.625Y-6.98
X3.625Y-7.08
X3.625Y-7.18
X3.625Y-7.28
X3.625Y-7.38
X3.625Y-7.48
X3.625Y-7.58
X3.625Y-7.68
X3.625Y-7.78
X3.625Y-7.88
X3.625Y-7.98
X3.625Y-8.08
X3.625Y-8.18
X3.625Y-8.28
X3.625Y-8.38
X3.625Y-8.48
X3.625Y-8.58
X4.533Y-9.199
X4.5669Y-3.7691
X4.5669Y-3.8691
X4.633Y-9.199
X4.733Y-9.199
X4.833Y-9.199
X4.8917Y-3.7697
X4.8917Y-3.8697
X4.8917Y-3.9697
X4.8917Y-4.0697
X4.8917Y-4.1697
X4.8917Y-4.2697
X4.8917Y-4.3697
X4.933Y-9.199
X5.033Y-9.199
X5.4862Y-3.213
X5.4862Y-3.313
X5.488Y-8.687
X5.488Y-8.787
X5.5679Y-9.1175
X5.5679Y-9.2175
X5.5862Y-3.213
X5.5862Y-3.313
X5.588Y-8.687
X5.588Y-8.787
X5.6862Y-3.213
X5.6862Y-3.313
X5.688Y-8.687
X5.688Y-8.787
X5.688Y-8.937
X5.7862Y-3.213
X5.7862Y-3.313
X5.788Y-8.687
X5.788Y-8.787
X5.788Y-8.937
X5.888Y-8.687
X5.888Y-8.787
X5.888Y-8.937
X5.988Y-8.687
X5.988Y-8.787
X5.988Y-8.937
X6.088Y-8.687
X6.088Y-8.787
X6.088Y-8.937
X6.188Y-8.687
X6.188Y-8.787
X6.188Y-8.937
X6.2079Y-5.3213
X6.2079Y-5.4213
X6.288Y-8.687
X6.288Y-8.787
X6.288Y-8.937
X6.3079Y-5.3213
X6.3079Y-5.4213
X6.388Y-8.687
X6.388Y-8.787
X6.388Y-8.937
X6.4079Y-5.3213
X6.4079Y-5.4213
X6.488Y-8.687
X6.488Y-8.787
X6.5079Y-5.3213
X6.5079Y-5.4213
X6.588Y-8.687
X6.588Y-8.787
X6.7402Y-5.2173
X6.7402Y-5.3173
X6.7402Y-5.4173
X7.8701Y-3.3317
X7.9701Y-3.3317
X8.0701Y-3.3317
X8.0708Y-5.5185
X8.0708Y-5.6185
X8.0708Y-5.7185
X8.0708Y-5.8185
X8.0708Y-5.9185
X8.0708Y-6.0185
X8.0708Y-6.1185
X8.0708Y-6.2185
X8.0708Y-6.3185
X8.0708Y-6.4185
X8.0708Y-6.5185
X8.0708Y-6.6185
X8.0708Y-6.7185
X8.0708Y-6.8185
X8.0708Y-6.9185
X8.0708Y-7.0185
X8.0708Y-7.1185
X8.0708Y-7.2185
X8.0708Y-7.3185
X8.0708Y-7.4185
X8.0827Y-5.1614
X8.0827Y-5.2614
X8.0827Y-5.3614
X8.1701Y-3.3317
X8.1708Y-5.5185
X8.1708Y-5.6185
X8.1708Y-5.7185
X8.1708Y-5.8185
X8.1708Y-5.9185
X8.1708Y-6.0185
X8.1708Y-6.1185
X8.1708Y-6.2185
X8.1708Y-6.3185
X8.1708Y-6.4185
X8.1708Y-6.5185
X8.1708Y-6.6185
X8.1708Y-6.7185
X8.1708Y-6.8185
X8.1708Y-6.9185
X8.1708Y-7.0185
X8.1708Y-7.1185
X8.1708Y-7.2185
X8.1708Y-7.3185
X8.1708Y-7.4185
X8.3542Y-5.5185
X8.3542Y-5.6185
X8.3542Y-5.7185
X8.3542Y-5.8185
X8.3542Y-5.9185
X8.3542Y-6.0185
X8.3542Y-6.1185
X8.3542Y-6.2185
X8.3542Y-6.3185
X8.3542Y-6.4185
X8.3542Y-6.5185
X8.3542Y-6.6185
X8.3542Y-6.7185
X8.3542Y-6.8185
X8.3542Y-6.9185
X8.3542Y-7.0185
X8.3542Y-7.1185
X8.3542Y-7.2185
X8.3542Y-7.3185
X8.3542Y-7.4185
X8.437Y-3.5185
X8.437Y-3.6185
X8.437Y-3.7185
X8.4542Y-5.5185
X8.4542Y-5.6185
X8.4542Y-5.7185
X8.4542Y-5.8185
X8.4542Y-5.9185
X8.4542Y-6.0185
X8.4542Y-6.1185
X8.4542Y-6.2185
X8.4542Y-6.3185
X8.4542Y-6.4185
X8.4542Y-6.5185
X8.4542Y-6.6185
X8.4542Y-6.7185
X8.4542Y-6.8185
X8.4542Y-6.9185
X8.4542Y-7.0185
X8.4542Y-7.1185
X8.4542Y-7.2185
X8.4542Y-7.3185
X8.4542Y-7.4185
X9.9803Y-8.752
X9.9803Y-8.852
X10.0803Y-8.752
X10.0803Y-8.852
X10.1803Y-8.752
X10.1803Y-8.852
X10.2803Y-8.752
X10.2803Y-8.852
X10.3803Y-8.752
X10.3803Y-8.852
X10.4803Y-8.752
X10.4803Y-8.852
X10.5803Y-8.752
X10.5803Y-8.852
X10.6803Y-8.752
X10.6803Y-8.852
X10.7803Y-8.752
X10.7803Y-8.852
X10.8803Y-8.752
X10.8803Y-8.852
X10.9168Y-6.4885
X10.9168Y-6.5885
X10.9168Y-6.6885
X10.9168Y-6.7885
X10.9168Y-6.8885
X10.9803Y-8.752
X10.9803Y-8.852
X11.0168Y-6.4885
X11.0168Y-6.5885
X11.0168Y-6.6885
X11.0168Y-6.7885
X11.0168Y-6.8885
X11.0803Y-8.752
X11.0803Y-8.852
X11.0956Y-4.9589
X11.0956Y-5.0589
X11.0956Y-5.1589
X11.0956Y-5.2589
X11.1956Y-4.9589
X11.1956Y-5.0589
X11.1956Y-5.1589
X11.1956Y-5.2589
X11.3342Y-4.615
X11.3558Y-4.8585
X11.3558Y-4.9585
X11.3558Y-5.0585
X11.3558Y-5.1585
X11.3558Y-5.2585
X11.4342Y-4.615
X11.4558Y-4.8585
X11.4558Y-4.9585
X11.4558Y-5.0585
X11.4558Y-5.1585
X11.4558Y-5.2585
X11.4908Y-2.3725
X11.4908Y-2.4725
X11.4908Y-2.5725
X11.4908Y-2.6725
X11.5028Y-3.1025
X11.6028Y-3.1025
X11.609Y-4.507
X11.6184Y-4.187
X11.709Y-4.507
X11.7184Y-4.187
X11.809Y-4.507
X11.8184Y-4.187
X11.909Y-4.507
X11.9184Y-4.187
X12.0184Y-4.187
X12.0258Y-6.2833
X12.0258Y-6.3833
X12.0258Y-6.4833
X12.0258Y-6.5833
X12.0258Y-6.6833
X12.0258Y-6.7833
X12.0258Y-6.8833
X12.1184Y-4.187
X12.2184Y-4.187
X12.252Y-2.432
X12.252Y-2.532
X12.3184Y-4.187
X12.3458Y-3.4935
X12.4458Y-3.4935
X12.5458Y-3.4935
X12.5806Y-2.7385
X12.6806Y-2.7385
T8
X3.791Y-8.861
X3.891Y-8.861
X3.991Y-8.861
X4.208Y-8.861
X4.308Y-8.861
X4.408Y-8.861
X8.9158Y-3.0635
X8.9158Y-3.2635
X9.0158Y-3.0635
X9.0158Y-3.2635
X9.1158Y-3.0635
X9.1158Y-3.2635
X9.2158Y-3.0635
X9.2158Y-3.2635
X9.3158Y-3.0635
X9.3158Y-3.2635
X9.4158Y-3.0635
X9.4158Y-3.2635
X9.5158Y-3.0635
X9.5158Y-3.2635
X9.6158Y-3.0635
X9.6158Y-3.2635
X9.7158Y-3.0635
X9.7158Y-3.2635
X9.8158Y-3.0635
X9.8158Y-3.2635
X9.9158Y-3.0635
X9.9158Y-3.2635
X10.0158Y-3.0635
X10.0158Y-3.2635
X10.1158Y-3.0635
X10.1158Y-3.2635
X10.2158Y-3.0635
X10.2158Y-3.2635
X10.3158Y-3.0635
X10.3158Y-3.2635
X10.4158Y-3.0635
X10.4158Y-3.2635
X10.5158Y-3.0635
X10.5158Y-3.2635
X10.6158Y-3.0635
X10.6158Y-3.2635
X10.7158Y-3.0635
X10.7158Y-3.2635
X10.8158Y-3.0635
X10.8158Y-3.2635
X10.9158Y-3.0635
X10.9158Y-3.2635
X11.0158Y-3.0635
X11.0158Y-3.2635
X11.7968Y-3.3165
X11.8008Y-2.9825
X11.8968Y-3.3165
X11.9008Y-2.9825
X11.9968Y-3.3165
X12.0008Y-2.9825
X12.2127Y-4.6717
X12.2127Y-4.7807
X12.2127Y-4.8898
X12.2127Y-4.9988
X12.2127Y-5.1079
X12.2127Y-5.9217
X12.2127Y-6.0307
X12.2127Y-6.1398
X12.2127Y-6.2488
X12.2127Y-6.3579
X12.3245Y-4.7262
X12.3245Y-4.8353
X12.3245Y-4.9443
X12.3245Y-5.0534
X12.3245Y-5.9762
X12.3245Y-6.0853
X12.3245Y-6.1943
X12.3245Y-6.3034
T9
X11.782Y-2.4646
X12.058Y-2.4646
T10
X3.6252Y-2.7562
X3.7237Y-2.3625
X3.7237Y-2.8546
X3.9205Y-2.7562
X3.9205Y-2.9531
X4.1174Y-2.3625
X4.1174Y-2.8562
X4.2158Y-2.7562
X4.8986Y-2.7522
X4.8986Y-2.9491
X4.9971Y-2.3585
X4.9971Y-2.8506
X5.1939Y-2.7522
X5.1939Y-2.9491
X5.3908Y-2.3585
X5.3908Y-2.8522
X5.4892Y-2.7522
X5.4892Y-2.9491
T11
X11.9012Y-3.8243
X11.9012Y-4.0145
X12.0512Y-3.8243
X12.0512Y-4.0145
X12.2012Y-3.8243
X12.2012Y-4.0145
X12.7048Y-3.8243
X12.7048Y-4.0145
T7
G00X12.2445Y-3.1999
M15
G01X12.2445Y-3.1211
M16
G05
G00X12.402Y-2.9755
M15
G01X12.3233Y-2.9755
M16
G05
G00X12.4808Y-3.1999
M15
G01X12.4808Y-3.1211
M16
G05
T0
M30
