G04 #@! TF.GenerationSoftware,KiCad,Pcbnew,(6.0.5)*
G04 #@! TF.CreationDate,2023-02-24T21:08:20-05:00*
G04 #@! TF.ProjectId,SuperColourPET,53757065-7243-46f6-9c6f-75725045542e,proto*
G04 #@! TF.SameCoordinates,Original*
G04 #@! TF.FileFunction,Soldermask,Top*
G04 #@! TF.FilePolarity,Negative*
%FSLAX46Y46*%
G04 Gerber Fmt 4.6, Leading zero omitted, Abs format (unit mm)*
G04 Created by KiCad (PCBNEW (6.0.5)) date 2023-02-24 21:08:20*
%MOMM*%
%LPD*%
G01*
G04 APERTURE LIST*
G04 Aperture macros list*
%AMRoundRect*
0 Rectangle with rounded corners*
0 $1 Rounding radius*
0 $2 $3 $4 $5 $6 $7 $8 $9 X,Y pos of 4 corners*
0 Add a 4 corners polygon primitive as box body*
4,1,4,$2,$3,$4,$5,$6,$7,$8,$9,$2,$3,0*
0 Add four circle primitives for the rounded corners*
1,1,$1+$1,$2,$3*
1,1,$1+$1,$4,$5*
1,1,$1+$1,$6,$7*
1,1,$1+$1,$8,$9*
0 Add four rect primitives between the rounded corners*
20,1,$1+$1,$2,$3,$4,$5,0*
20,1,$1+$1,$4,$5,$6,$7,0*
20,1,$1+$1,$6,$7,$8,$9,0*
20,1,$1+$1,$8,$9,$2,$3,0*%
G04 Aperture macros list end*
%ADD10C,1.600000*%
%ADD11R,1.500000X1.500000*%
%ADD12C,1.500000*%
%ADD13R,1.600000X1.600000*%
%ADD14O,1.600000X1.600000*%
%ADD15R,1.700000X1.700000*%
%ADD16O,1.700000X1.700000*%
%ADD17R,1.422400X1.422400*%
%ADD18C,1.422400*%
%ADD19R,1.905000X2.000000*%
%ADD20O,1.905000X2.000000*%
%ADD21R,1.800000X1.800000*%
%ADD22C,1.800000*%
%ADD23C,3.000000*%
%ADD24R,3.500000X3.500000*%
%ADD25RoundRect,0.750000X0.750000X1.000000X-0.750000X1.000000X-0.750000X-1.000000X0.750000X-1.000000X0*%
%ADD26RoundRect,0.875000X0.875000X0.875000X-0.875000X0.875000X-0.875000X-0.875000X0.875000X-0.875000X0*%
%ADD27O,2.410000X8.760000*%
%ADD28C,1.400000*%
%ADD29O,1.400000X1.400000*%
%ADD30R,2.400000X1.600000*%
%ADD31O,2.400000X1.600000*%
%ADD32C,2.100000*%
%ADD33C,1.750000*%
%ADD34O,1.800000X1.800000*%
%ADD35R,1.600000X2.400000*%
%ADD36O,1.600000X2.400000*%
%ADD37R,1.200000X1.200000*%
%ADD38C,1.200000*%
%ADD39C,3.300000*%
%ADD40RoundRect,0.150000X0.875000X0.150000X-0.875000X0.150000X-0.875000X-0.150000X0.875000X-0.150000X0*%
%ADD41R,3.100000X3.100000*%
G04 APERTURE END LIST*
D10*
X283483200Y-148678900D03*
X283483200Y-143678900D03*
X123200000Y-173088300D03*
X118200000Y-173088300D03*
D11*
X168523200Y-62174600D03*
D12*
X168523200Y-64714600D03*
X168523200Y-67254600D03*
D13*
X128819200Y-89623900D03*
D14*
X128819200Y-92163900D03*
X128819200Y-94703900D03*
X128819200Y-97243900D03*
X128819200Y-99783900D03*
X128819200Y-102323900D03*
X128819200Y-104863900D03*
X128819200Y-107403900D03*
X128819200Y-109943900D03*
X128819200Y-112483900D03*
X128819200Y-115023900D03*
X128819200Y-117563900D03*
X128819200Y-120103900D03*
X128819200Y-122643900D03*
X128819200Y-125183900D03*
X128819200Y-127723900D03*
X136439200Y-127723900D03*
X136439200Y-125183900D03*
X136439200Y-122643900D03*
X136439200Y-120103900D03*
X136439200Y-117563900D03*
X136439200Y-115023900D03*
X136439200Y-112483900D03*
X136439200Y-109943900D03*
X136439200Y-107403900D03*
X136439200Y-104863900D03*
X136439200Y-102323900D03*
X136439200Y-99783900D03*
X136439200Y-97243900D03*
X136439200Y-94703900D03*
X136439200Y-92163900D03*
X136439200Y-89623900D03*
D15*
X171200000Y-137600000D03*
D16*
X171200000Y-135060000D03*
X171200000Y-132520000D03*
D15*
X116000000Y-98275000D03*
D16*
X116000000Y-95735000D03*
D15*
X127838200Y-233654600D03*
D16*
X125298200Y-233654600D03*
X122758200Y-233654600D03*
X120218200Y-233654600D03*
X117678200Y-233654600D03*
X115138200Y-233654600D03*
D11*
X158927200Y-62174600D03*
D12*
X158927200Y-64714600D03*
X158927200Y-67254600D03*
D10*
X166948000Y-206768700D03*
X166948000Y-201768700D03*
D17*
X308681211Y-202183400D03*
D18*
X311221211Y-199643400D03*
X308681211Y-199643400D03*
X311221211Y-197103400D03*
X308681211Y-197103400D03*
X311221211Y-194563400D03*
X308681211Y-192023400D03*
X308681211Y-194563400D03*
X306141211Y-192023400D03*
X306141211Y-194563400D03*
X303601211Y-192023400D03*
X303601211Y-194563400D03*
X301061211Y-192023400D03*
X301061211Y-194563400D03*
X298521211Y-192023400D03*
X298521211Y-194563400D03*
X295981211Y-192023400D03*
X293441211Y-194563400D03*
X295981211Y-194563400D03*
X293441211Y-197103400D03*
X295981211Y-197103400D03*
X293441211Y-199643400D03*
X295981211Y-199643400D03*
X293441211Y-202183400D03*
X295981211Y-202183400D03*
X293441211Y-204723400D03*
X295981211Y-204723400D03*
X293441211Y-207263400D03*
X295981211Y-209803400D03*
X295981211Y-207263400D03*
X298521211Y-209803400D03*
X298521211Y-207263400D03*
X301061211Y-209803400D03*
X301061211Y-207263400D03*
X303601211Y-209803400D03*
X303601211Y-207263400D03*
X306141211Y-209803400D03*
X306141211Y-207263400D03*
X308681211Y-209803400D03*
X311221211Y-207263400D03*
X308681211Y-207263400D03*
X311221211Y-204723400D03*
X308681211Y-204723400D03*
X311221211Y-202183400D03*
D10*
X126205000Y-85325000D03*
D14*
X128745000Y-85325000D03*
D19*
X101371400Y-225069400D03*
D20*
X98831400Y-225069400D03*
X96291400Y-225069400D03*
D21*
X88375000Y-134675000D03*
D22*
X90915000Y-134675000D03*
D23*
X124425200Y-69905900D03*
X126925200Y-59905900D03*
X131925200Y-69905900D03*
X136925200Y-59905900D03*
X139425200Y-69905900D03*
X126925200Y-72405900D03*
X136925200Y-72445900D03*
X131925200Y-74905900D03*
X124425200Y-74905900D03*
X139425200Y-74905900D03*
D15*
X165300000Y-135160000D03*
D16*
X165300000Y-137700000D03*
X162760000Y-135160000D03*
X162760000Y-137700000D03*
X160220000Y-135160000D03*
X160220000Y-137700000D03*
X157680000Y-135160000D03*
X157680000Y-137700000D03*
D13*
X297961200Y-71462900D03*
D10*
X297961200Y-68962900D03*
D24*
X311011200Y-80276700D03*
D25*
X317011200Y-80276700D03*
D26*
X314011200Y-75576700D03*
D10*
X208045200Y-212356700D03*
X203045200Y-212356700D03*
D13*
X281508200Y-104851200D03*
D10*
X281508200Y-112471200D03*
X289128200Y-112471200D03*
X289128200Y-104851200D03*
X154100000Y-90645000D03*
D14*
X154100000Y-88105000D03*
D27*
X290675200Y-244563900D03*
X286715200Y-244563900D03*
X282755200Y-244563900D03*
X278795200Y-244563900D03*
X274835200Y-244563900D03*
X270875200Y-244563900D03*
X266915200Y-244563900D03*
X262955200Y-244563900D03*
X258995200Y-244563900D03*
X255035200Y-244563900D03*
X251075200Y-244563900D03*
X247115200Y-244563900D03*
X286715200Y-244563900D03*
X282755200Y-244563900D03*
X278795200Y-244563900D03*
X274835200Y-244563900D03*
X270875200Y-244563900D03*
X266915200Y-244563900D03*
X262955200Y-244563900D03*
X258995200Y-244563900D03*
X255035200Y-244563900D03*
X251075200Y-244563900D03*
X247115200Y-244563900D03*
D15*
X88325000Y-122650000D03*
D16*
X90865000Y-122650000D03*
X88325000Y-125190000D03*
X90865000Y-125190000D03*
D13*
X226460200Y-82892900D03*
D10*
X229000200Y-82892900D03*
X231540200Y-82892900D03*
X234080200Y-82892900D03*
X236620200Y-82892900D03*
X239160200Y-82892900D03*
X241700200Y-82892900D03*
X244240200Y-82892900D03*
X246780200Y-82892900D03*
X249320200Y-82892900D03*
X251860200Y-82892900D03*
X254400200Y-82892900D03*
X256940200Y-82892900D03*
X259480200Y-82892900D03*
X262020200Y-82892900D03*
X264560200Y-82892900D03*
X267100200Y-82892900D03*
X269640200Y-82892900D03*
X272180200Y-82892900D03*
X274720200Y-82892900D03*
X277260200Y-82892900D03*
X279800200Y-82892900D03*
X226460200Y-77812900D03*
X229000200Y-77812900D03*
X231540200Y-77812900D03*
X234080200Y-77812900D03*
X236620200Y-77812900D03*
X239160200Y-77812900D03*
X241700200Y-77812900D03*
X244240200Y-77812900D03*
X246780200Y-77812900D03*
X249320200Y-77812900D03*
X251860200Y-77812900D03*
X254400200Y-77812900D03*
X256940200Y-77812900D03*
X259480200Y-77812900D03*
X262020200Y-77812900D03*
X264560200Y-77812900D03*
X267100200Y-77812900D03*
X269640200Y-77812900D03*
X272180200Y-77812900D03*
X274720200Y-77812900D03*
X277260200Y-77812900D03*
X279800200Y-77812900D03*
D17*
X168294200Y-145630900D03*
D18*
X165754200Y-143090900D03*
X165754200Y-145630900D03*
X163214200Y-143090900D03*
X163214200Y-145630900D03*
X160674200Y-143090900D03*
X158134200Y-145630900D03*
X160674200Y-145630900D03*
X158134200Y-148170900D03*
X160674200Y-148170900D03*
X158134200Y-150710900D03*
X160674200Y-150710900D03*
X158134200Y-153250900D03*
X160674200Y-153250900D03*
X158134200Y-155790900D03*
X160674200Y-155790900D03*
X158134200Y-158330900D03*
X160674200Y-160870900D03*
X160674200Y-158330900D03*
X163214200Y-160870900D03*
X163214200Y-158330900D03*
X165754200Y-160870900D03*
X165754200Y-158330900D03*
X168294200Y-160870900D03*
X168294200Y-158330900D03*
X170834200Y-160870900D03*
X170834200Y-158330900D03*
X173374200Y-160870900D03*
X175914200Y-158330900D03*
X173374200Y-158330900D03*
X175914200Y-155790900D03*
X173374200Y-155790900D03*
X175914200Y-153250900D03*
X173374200Y-153250900D03*
X175914200Y-150710900D03*
X173374200Y-150710900D03*
X175914200Y-148170900D03*
X173374200Y-148170900D03*
X175914200Y-145630900D03*
X173374200Y-143090900D03*
X173374200Y-145630900D03*
X170834200Y-143090900D03*
X170834200Y-145630900D03*
X168294200Y-143090900D03*
D28*
X198755000Y-70332600D03*
D29*
X198755000Y-62712600D03*
D15*
X212197200Y-140169900D03*
D16*
X214737200Y-140169900D03*
X212197200Y-142709900D03*
X214737200Y-142709900D03*
X212197200Y-145249900D03*
X214737200Y-145249900D03*
X212197200Y-147789900D03*
X214737200Y-147789900D03*
X212197200Y-150329900D03*
X214737200Y-150329900D03*
X212197200Y-152869900D03*
X214737200Y-152869900D03*
X212197200Y-155409900D03*
X214737200Y-155409900D03*
X212197200Y-157949900D03*
X214737200Y-157949900D03*
X212197200Y-160489900D03*
X214737200Y-160489900D03*
X212197200Y-163029900D03*
X214737200Y-163029900D03*
X212197200Y-165569900D03*
X214737200Y-165569900D03*
X212197200Y-168109900D03*
X214737200Y-168109900D03*
X212197200Y-170649900D03*
X214737200Y-170649900D03*
X212197200Y-173189900D03*
X214737200Y-173189900D03*
X212197200Y-175729900D03*
X214737200Y-175729900D03*
X212197200Y-178269900D03*
X214737200Y-178269900D03*
X212197200Y-180809900D03*
X214737200Y-180809900D03*
X212197200Y-183349900D03*
X214737200Y-183349900D03*
X212197200Y-185889900D03*
X214737200Y-185889900D03*
X212197200Y-188429900D03*
X214737200Y-188429900D03*
D13*
X306343200Y-71462900D03*
D10*
X306343200Y-68962900D03*
X213080600Y-71424800D03*
X208080600Y-71424800D03*
D17*
X263671200Y-199605900D03*
D18*
X261131200Y-202145900D03*
X263671200Y-202145900D03*
X261131200Y-204685900D03*
X263671200Y-204685900D03*
X261131200Y-207225900D03*
X263671200Y-209765900D03*
X263671200Y-207225900D03*
X266211200Y-209765900D03*
X266211200Y-207225900D03*
X268751200Y-209765900D03*
X268751200Y-207225900D03*
X271291200Y-209765900D03*
X271291200Y-207225900D03*
X273831200Y-209765900D03*
X273831200Y-207225900D03*
X276371200Y-209765900D03*
X278911200Y-207225900D03*
X276371200Y-207225900D03*
X278911200Y-204685900D03*
X276371200Y-204685900D03*
X278911200Y-202145900D03*
X276371200Y-202145900D03*
X278911200Y-199605900D03*
X276371200Y-199605900D03*
X278911200Y-197065900D03*
X276371200Y-197065900D03*
X278911200Y-194525900D03*
X276371200Y-191985900D03*
X276371200Y-194525900D03*
X273831200Y-191985900D03*
X273831200Y-194525900D03*
X271291200Y-191985900D03*
X271291200Y-194525900D03*
X268751200Y-191985900D03*
X268751200Y-194525900D03*
X266211200Y-191985900D03*
X266211200Y-194525900D03*
X263671200Y-191985900D03*
X261131200Y-194525900D03*
X263671200Y-194525900D03*
X261131200Y-197065900D03*
X263671200Y-197065900D03*
X261131200Y-199605900D03*
D15*
X319546200Y-69557900D03*
D16*
X322086200Y-69557900D03*
D30*
X185575000Y-75465000D03*
D31*
X185575000Y-72925000D03*
X185575000Y-70385000D03*
X185575000Y-67845000D03*
X185575000Y-65305000D03*
X185575000Y-62765000D03*
X185575000Y-60225000D03*
X177955000Y-60225000D03*
X177955000Y-62765000D03*
X177955000Y-65305000D03*
X177955000Y-67845000D03*
X177955000Y-70385000D03*
X177955000Y-72925000D03*
X177955000Y-75465000D03*
D15*
X294710000Y-78803500D03*
D16*
X292170000Y-78803500D03*
D28*
X104317800Y-222377000D03*
D29*
X111937800Y-222377000D03*
D10*
X154100000Y-85830000D03*
X154100000Y-80830000D03*
D15*
X281827200Y-125955900D03*
D16*
X284367200Y-125955900D03*
X281827200Y-128495900D03*
X284367200Y-128495900D03*
X281827200Y-131035900D03*
X284367200Y-131035900D03*
X281827200Y-133575900D03*
X284367200Y-133575900D03*
D32*
X306272200Y-62600400D03*
X299262200Y-62600400D03*
D33*
X300512200Y-60110400D03*
X305012200Y-60110400D03*
D10*
X201601200Y-81471200D03*
X201601200Y-76471200D03*
D19*
X111963200Y-225069400D03*
D20*
X109423200Y-225069400D03*
X106883200Y-225069400D03*
D10*
X214800000Y-230700000D03*
X214800000Y-225700000D03*
D21*
X106680000Y-230936800D03*
D34*
X96520000Y-230936800D03*
D13*
X299274994Y-91960700D03*
D10*
X296774994Y-91960700D03*
D12*
X282213200Y-153504900D03*
X282213200Y-158384900D03*
D11*
X191338200Y-64414400D03*
D12*
X193878200Y-64414400D03*
X196418200Y-64414400D03*
D28*
X205892400Y-70332600D03*
D29*
X205892400Y-62712600D03*
D15*
X290976200Y-133565900D03*
D16*
X288436200Y-133565900D03*
X290976200Y-131025900D03*
X288436200Y-131025900D03*
X290976200Y-128485900D03*
X288436200Y-128485900D03*
X290976200Y-125945900D03*
X288436200Y-125945900D03*
X290976200Y-123405900D03*
X288436200Y-123405900D03*
D27*
X205505200Y-244563900D03*
X201545200Y-244563900D03*
X197585200Y-244563900D03*
X193625200Y-244563900D03*
X189665200Y-244563900D03*
X185705200Y-244563900D03*
X181745200Y-244563900D03*
X177785200Y-244563900D03*
X173825200Y-244563900D03*
X169865200Y-244563900D03*
X165905200Y-244563900D03*
X161945200Y-244563900D03*
X201545200Y-244563900D03*
X197585200Y-244563900D03*
X193625200Y-244563900D03*
X189665200Y-244563900D03*
X185705200Y-244563900D03*
X181745200Y-244563900D03*
X177785200Y-244563900D03*
X173825200Y-244563900D03*
X169865200Y-244563900D03*
X165905200Y-244563900D03*
X161945200Y-244563900D03*
D30*
X173937000Y-92980000D03*
D31*
X173937000Y-95520000D03*
X173937000Y-98060000D03*
X173937000Y-100600000D03*
X173937000Y-103140000D03*
X173937000Y-105680000D03*
X173937000Y-108220000D03*
X173937000Y-110760000D03*
X173937000Y-113300000D03*
X173937000Y-115840000D03*
X173937000Y-118380000D03*
X173937000Y-120920000D03*
X173937000Y-123460000D03*
X173937000Y-126000000D03*
X189177000Y-126000000D03*
X189177000Y-123460000D03*
X189177000Y-120920000D03*
X189177000Y-118380000D03*
X189177000Y-115840000D03*
X189177000Y-113300000D03*
X189177000Y-110760000D03*
X189177000Y-108220000D03*
X189177000Y-105680000D03*
X189177000Y-103140000D03*
X189177000Y-100600000D03*
X189177000Y-98060000D03*
X189177000Y-95520000D03*
X189177000Y-92980000D03*
D28*
X93649800Y-222326200D03*
D29*
X101269800Y-222326200D03*
D10*
X291760200Y-138645900D03*
X286760200Y-138645900D03*
D21*
X131460000Y-79050000D03*
D34*
X134000000Y-79050000D03*
D10*
X230876000Y-215557100D03*
X225876000Y-215557100D03*
X165199200Y-69413600D03*
D14*
X165199200Y-71953600D03*
D15*
X279825600Y-174967900D03*
D16*
X277285600Y-174967900D03*
X279825600Y-172427900D03*
X277285600Y-172427900D03*
X279825600Y-169887900D03*
X277285600Y-169887900D03*
X279825600Y-167347900D03*
X277285600Y-167347900D03*
X279825600Y-164807900D03*
X277285600Y-164807900D03*
D15*
X305454200Y-159595900D03*
D16*
X305454200Y-162135900D03*
X305454200Y-164675900D03*
X305454200Y-167215900D03*
X305454200Y-169755900D03*
X305454200Y-172295900D03*
X305454200Y-174835900D03*
D10*
X160732200Y-69388200D03*
D14*
X160732200Y-71928200D03*
D10*
X150900000Y-85810000D03*
X150900000Y-80810000D03*
X190425000Y-86050000D03*
X195425000Y-86050000D03*
D30*
X297834200Y-118325900D03*
D31*
X297834200Y-120865900D03*
X297834200Y-123405900D03*
X297834200Y-125945900D03*
X297834200Y-128485900D03*
X297834200Y-131025900D03*
X297834200Y-133565900D03*
X305454200Y-133565900D03*
X305454200Y-131025900D03*
X305454200Y-128485900D03*
X305454200Y-125945900D03*
X305454200Y-123405900D03*
X305454200Y-120865900D03*
X305454200Y-118325900D03*
D10*
X198527800Y-81449600D03*
X198527800Y-76449600D03*
D15*
X291865200Y-60261500D03*
D16*
X291865200Y-62801500D03*
X291865200Y-65341500D03*
X291865200Y-67881500D03*
D15*
X141425000Y-234125000D03*
D16*
X141425000Y-231585000D03*
D10*
X204750800Y-81471200D03*
X204750800Y-76471200D03*
D35*
X218140000Y-230720000D03*
D36*
X220680000Y-230720000D03*
X223220000Y-230720000D03*
X225760000Y-230720000D03*
X228300000Y-230720000D03*
X230840000Y-230720000D03*
X233380000Y-230720000D03*
X235920000Y-230720000D03*
X238460000Y-230720000D03*
X241000000Y-230720000D03*
X241000000Y-223100000D03*
X238460000Y-223100000D03*
X235920000Y-223100000D03*
X233380000Y-223100000D03*
X230840000Y-223100000D03*
X228300000Y-223100000D03*
X225760000Y-223100000D03*
X223220000Y-223100000D03*
X220680000Y-223100000D03*
X218140000Y-223100000D03*
D10*
X157300000Y-90645000D03*
D14*
X157300000Y-88105000D03*
D10*
X234562800Y-160083500D03*
X234562800Y-165083500D03*
X191338200Y-68072000D03*
X196338200Y-68072000D03*
D30*
X286658200Y-141947900D03*
D31*
X286658200Y-144487900D03*
X286658200Y-147027900D03*
X286658200Y-149567900D03*
X286658200Y-152107900D03*
X286658200Y-154647900D03*
X286658200Y-157187900D03*
X286658200Y-159727900D03*
X286658200Y-162267900D03*
X286658200Y-164807900D03*
X286658200Y-167347900D03*
X286658200Y-169887900D03*
X286658200Y-172427900D03*
X286658200Y-174967900D03*
X301898200Y-174967900D03*
X301898200Y-172427900D03*
X301898200Y-169887900D03*
X301898200Y-167347900D03*
X301898200Y-164807900D03*
X301898200Y-162267900D03*
X301898200Y-159727900D03*
X301898200Y-157187900D03*
X301898200Y-154647900D03*
X301898200Y-152107900D03*
X301898200Y-149567900D03*
X301898200Y-147027900D03*
X301898200Y-144487900D03*
X301898200Y-141947900D03*
D15*
X87879000Y-223316800D03*
D16*
X90419000Y-223316800D03*
D10*
X256813200Y-192189100D03*
X256813200Y-197189100D03*
X300228000Y-136880600D03*
X305228000Y-136880600D03*
D15*
X88208000Y-163842700D03*
D16*
X88208000Y-161302700D03*
D15*
X311200800Y-64312800D03*
D16*
X311200800Y-61772800D03*
D10*
X274999600Y-104218100D03*
X274999600Y-109218100D03*
D28*
X191211200Y-74091800D03*
D29*
X198831200Y-74091800D03*
D10*
X161260000Y-80500000D03*
D14*
X163800000Y-80500000D03*
D19*
X304819200Y-75755500D03*
D20*
X302279200Y-75755500D03*
X299739200Y-75755500D03*
D30*
X95624800Y-97624900D03*
D31*
X95624800Y-100164900D03*
X95624800Y-102704900D03*
X95624800Y-105244900D03*
X95624800Y-107784900D03*
X95624800Y-110324900D03*
X95624800Y-112864900D03*
X95624800Y-115404900D03*
X95624800Y-117944900D03*
X95624800Y-120484900D03*
X95624800Y-123024900D03*
X95624800Y-125564900D03*
X95624800Y-128104900D03*
X95624800Y-130644900D03*
X95624800Y-133184900D03*
X95624800Y-135724900D03*
X95624800Y-138264900D03*
X95624800Y-140804900D03*
X95624800Y-143344900D03*
X95624800Y-145884900D03*
X95624800Y-148424900D03*
X95624800Y-150964900D03*
X95624800Y-153504900D03*
X95624800Y-156044900D03*
X110864800Y-156044900D03*
X110864800Y-153504900D03*
X110864800Y-150964900D03*
X110864800Y-148424900D03*
X110864800Y-145884900D03*
X110864800Y-143344900D03*
X110864800Y-140804900D03*
X110864800Y-138264900D03*
X110864800Y-135724900D03*
X110864800Y-133184900D03*
X110864800Y-130644900D03*
X110864800Y-128104900D03*
X110864800Y-125564900D03*
X110864800Y-123024900D03*
X110864800Y-120484900D03*
X110864800Y-117944900D03*
X110864800Y-115404900D03*
X110864800Y-112864900D03*
X110864800Y-110324900D03*
X110864800Y-107784900D03*
X110864800Y-105244900D03*
X110864800Y-102704900D03*
X110864800Y-100164900D03*
X110864800Y-97624900D03*
D15*
X88411200Y-113906300D03*
D16*
X88411200Y-116446300D03*
X88411200Y-118986300D03*
D15*
X162255200Y-226999800D03*
D16*
X159715200Y-226999800D03*
X157175200Y-226999800D03*
X154635200Y-226999800D03*
X152095200Y-226999800D03*
X149555200Y-226999800D03*
X147015200Y-226999800D03*
X144475200Y-226999800D03*
D15*
X205300000Y-131100000D03*
D16*
X205300000Y-133640000D03*
X205300000Y-136180000D03*
D10*
X316604800Y-207175100D03*
X316604800Y-212175100D03*
X190425000Y-82925000D03*
X195425000Y-82925000D03*
D11*
X163718200Y-62174600D03*
D12*
X163718200Y-64714600D03*
X163718200Y-67254600D03*
D15*
X214300000Y-94450000D03*
D16*
X214300000Y-91910000D03*
X214300000Y-89370000D03*
D15*
X290428600Y-117221000D03*
D16*
X287888600Y-117221000D03*
D13*
X294347394Y-84289900D03*
D10*
X291847394Y-84289900D03*
D15*
X204997200Y-140169900D03*
D16*
X207537200Y-140169900D03*
X204997200Y-142709900D03*
X207537200Y-142709900D03*
X204997200Y-145249900D03*
X207537200Y-145249900D03*
X204997200Y-147789900D03*
X207537200Y-147789900D03*
X204997200Y-150329900D03*
X207537200Y-150329900D03*
X204997200Y-152869900D03*
X207537200Y-152869900D03*
X204997200Y-155409900D03*
X207537200Y-155409900D03*
X204997200Y-157949900D03*
X207537200Y-157949900D03*
X204997200Y-160489900D03*
X207537200Y-160489900D03*
X204997200Y-163029900D03*
X207537200Y-163029900D03*
X204997200Y-165569900D03*
X207537200Y-165569900D03*
X204997200Y-168109900D03*
X207537200Y-168109900D03*
X204997200Y-170649900D03*
X207537200Y-170649900D03*
X204997200Y-173189900D03*
X207537200Y-173189900D03*
X204997200Y-175729900D03*
X207537200Y-175729900D03*
X204997200Y-178269900D03*
X207537200Y-178269900D03*
X204997200Y-180809900D03*
X207537200Y-180809900D03*
X204997200Y-183349900D03*
X207537200Y-183349900D03*
X204997200Y-185889900D03*
X207537200Y-185889900D03*
X204997200Y-188429900D03*
X207537200Y-188429900D03*
D10*
X159317200Y-94703900D03*
X164317200Y-94703900D03*
X96300000Y-84700000D03*
X96300000Y-79700000D03*
D21*
X97485200Y-234721400D03*
D34*
X87325200Y-234721400D03*
D17*
X254019200Y-141033500D03*
D18*
X254019200Y-143573500D03*
X251479200Y-141033500D03*
X251479200Y-143573500D03*
X248939200Y-141033500D03*
X248939200Y-143573500D03*
X246399200Y-141033500D03*
X246399200Y-143573500D03*
X243859200Y-141033500D03*
X243859200Y-143573500D03*
X241319200Y-141033500D03*
X238779200Y-143573500D03*
X241319200Y-143573500D03*
X238779200Y-146113500D03*
X241319200Y-146113500D03*
X238779200Y-148653500D03*
X241319200Y-148653500D03*
X238779200Y-151193500D03*
X241319200Y-151193500D03*
X238779200Y-153733500D03*
X241319200Y-153733500D03*
X238779200Y-156273500D03*
X241319200Y-156273500D03*
X238779200Y-158813500D03*
X241319200Y-158813500D03*
X238779200Y-161353500D03*
X241319200Y-161353500D03*
X238779200Y-163893500D03*
X241319200Y-163893500D03*
X238779200Y-166433500D03*
X241319200Y-166433500D03*
X238779200Y-168973500D03*
X241319200Y-171513500D03*
X241319200Y-168973500D03*
X243859200Y-171513500D03*
X243859200Y-168973500D03*
X246399200Y-171513500D03*
X246399200Y-168973500D03*
X248939200Y-171513500D03*
X248939200Y-168973500D03*
X251479200Y-171513500D03*
X251479200Y-168973500D03*
X254019200Y-171513500D03*
X254019200Y-168973500D03*
X256559200Y-171513500D03*
X256559200Y-168973500D03*
X259099200Y-171513500D03*
X259099200Y-168973500D03*
X261639200Y-171513500D03*
X261639200Y-168973500D03*
X264179200Y-171513500D03*
X264179200Y-168973500D03*
X266719200Y-171513500D03*
X269259200Y-168973500D03*
X266719200Y-168973500D03*
X269259200Y-166433500D03*
X266719200Y-166433500D03*
X269259200Y-163893500D03*
X266719200Y-163893500D03*
X269259200Y-161353500D03*
X266719200Y-161353500D03*
X269259200Y-158813500D03*
X266719200Y-158813500D03*
X269259200Y-156273500D03*
X266719200Y-156273500D03*
X269259200Y-153733500D03*
X266719200Y-153733500D03*
X269259200Y-151193500D03*
X266719200Y-151193500D03*
X269259200Y-148653500D03*
X266719200Y-148653500D03*
X269259200Y-146113500D03*
X266719200Y-146113500D03*
X269259200Y-143573500D03*
X266719200Y-141033500D03*
X266719200Y-143573500D03*
X264179200Y-141033500D03*
X264179200Y-143573500D03*
X261639200Y-141033500D03*
X261639200Y-143573500D03*
X259099200Y-141033500D03*
X259099200Y-143573500D03*
X256559200Y-141033500D03*
X256559200Y-143573500D03*
D10*
X283483200Y-163283900D03*
X283483200Y-168283900D03*
D17*
X146780400Y-200609200D03*
D18*
X144240400Y-203149200D03*
X146780400Y-203149200D03*
X144240400Y-205689200D03*
X146780400Y-205689200D03*
X144240400Y-208229200D03*
X146780400Y-210769200D03*
X146780400Y-208229200D03*
X149320400Y-210769200D03*
X149320400Y-208229200D03*
X151860400Y-210769200D03*
X151860400Y-208229200D03*
X154400400Y-210769200D03*
X154400400Y-208229200D03*
X156940400Y-210769200D03*
X156940400Y-208229200D03*
X159480400Y-210769200D03*
X162020400Y-208229200D03*
X159480400Y-208229200D03*
X162020400Y-205689200D03*
X159480400Y-205689200D03*
X162020400Y-203149200D03*
X159480400Y-203149200D03*
X162020400Y-200609200D03*
X159480400Y-200609200D03*
X162020400Y-198069200D03*
X159480400Y-198069200D03*
X162020400Y-195529200D03*
X159480400Y-192989200D03*
X159480400Y-195529200D03*
X156940400Y-192989200D03*
X156940400Y-195529200D03*
X154400400Y-192989200D03*
X154400400Y-195529200D03*
X151860400Y-192989200D03*
X151860400Y-195529200D03*
X149320400Y-192989200D03*
X149320400Y-195529200D03*
X146780400Y-192989200D03*
X144240400Y-195529200D03*
X146780400Y-195529200D03*
X144240400Y-198069200D03*
X146780400Y-198069200D03*
X144240400Y-200609200D03*
D10*
X157300000Y-85870000D03*
X157300000Y-80870000D03*
D15*
X88512800Y-153174700D03*
D16*
X88512800Y-150634700D03*
X88512800Y-148094700D03*
D37*
X167925000Y-89725000D03*
D38*
X166425000Y-89725000D03*
D10*
X207875000Y-81475000D03*
X207875000Y-76475000D03*
D35*
X99600000Y-90908900D03*
D36*
X102140000Y-90908900D03*
X104680000Y-90908900D03*
X107220000Y-90908900D03*
X109760000Y-90908900D03*
X112300000Y-90908900D03*
X114840000Y-90908900D03*
X117380000Y-90908900D03*
X119920000Y-90908900D03*
X122460000Y-90908900D03*
X122460000Y-83288900D03*
X119920000Y-83288900D03*
X117380000Y-83288900D03*
X114840000Y-83288900D03*
X112300000Y-83288900D03*
X109760000Y-83288900D03*
X107220000Y-83288900D03*
X104680000Y-83288900D03*
X102140000Y-83288900D03*
X99600000Y-83288900D03*
D15*
X281440000Y-222300000D03*
D16*
X281440000Y-224840000D03*
X278900000Y-222300000D03*
X278900000Y-224840000D03*
X276360000Y-222300000D03*
X276360000Y-224840000D03*
X273820000Y-222300000D03*
X273820000Y-224840000D03*
X271280000Y-222300000D03*
X271280000Y-224840000D03*
X268740000Y-222300000D03*
X268740000Y-224840000D03*
X266200000Y-222300000D03*
X266200000Y-224840000D03*
X263660000Y-222300000D03*
X263660000Y-224840000D03*
X261120000Y-222300000D03*
X261120000Y-224840000D03*
X258580000Y-222300000D03*
X258580000Y-224840000D03*
X256040000Y-222300000D03*
X256040000Y-224840000D03*
X253500000Y-222300000D03*
X253500000Y-224840000D03*
D10*
X214736200Y-136994900D03*
X209736200Y-136994900D03*
X182875000Y-78525000D03*
X187875000Y-78525000D03*
X126210000Y-82175000D03*
D14*
X128750000Y-82175000D03*
D10*
X126600000Y-88625000D03*
X126600000Y-93625000D03*
D15*
X167335200Y-220649800D03*
D16*
X167335200Y-223189800D03*
X164795200Y-220649800D03*
X164795200Y-223189800D03*
X162255200Y-220649800D03*
X162255200Y-223189800D03*
X159715200Y-220649800D03*
X159715200Y-223189800D03*
X157175200Y-220649800D03*
X157175200Y-223189800D03*
X154635200Y-220649800D03*
X154635200Y-223189800D03*
X152095200Y-220649800D03*
X152095200Y-223189800D03*
X149555200Y-220649800D03*
X149555200Y-223189800D03*
X147015200Y-220649800D03*
X147015200Y-223189800D03*
X144475200Y-220649800D03*
X144475200Y-223189800D03*
X141935200Y-220649800D03*
X141935200Y-223189800D03*
X139395200Y-220649800D03*
X139395200Y-223189800D03*
D28*
X203682600Y-70332600D03*
D29*
X203682600Y-62712600D03*
D35*
X172434400Y-225920300D03*
D36*
X174974400Y-225920300D03*
X177514400Y-225920300D03*
X180054400Y-225920300D03*
X182594400Y-225920300D03*
X185134400Y-225920300D03*
X187674400Y-225920300D03*
X190214400Y-225920300D03*
X192754400Y-225920300D03*
X195294400Y-225920300D03*
X195294400Y-218300300D03*
X192754400Y-218300300D03*
X190214400Y-218300300D03*
X187674400Y-218300300D03*
X185134400Y-218300300D03*
X182594400Y-218300300D03*
X180054400Y-218300300D03*
X177514400Y-218300300D03*
X174974400Y-218300300D03*
X172434400Y-218300300D03*
D10*
X190400000Y-89200000D03*
X195400000Y-89200000D03*
D30*
X141243200Y-94703900D03*
D31*
X141243200Y-97243900D03*
X141243200Y-99783900D03*
X141243200Y-102323900D03*
X141243200Y-104863900D03*
X141243200Y-107403900D03*
X141243200Y-109943900D03*
X141243200Y-112483900D03*
X141243200Y-115023900D03*
X141243200Y-117563900D03*
X141243200Y-120103900D03*
X141243200Y-122643900D03*
X141243200Y-125183900D03*
X141243200Y-127723900D03*
X156483200Y-127723900D03*
X156483200Y-125183900D03*
X156483200Y-122643900D03*
X156483200Y-120103900D03*
X156483200Y-117563900D03*
X156483200Y-115023900D03*
X156483200Y-112483900D03*
X156483200Y-109943900D03*
X156483200Y-107403900D03*
X156483200Y-104863900D03*
X156483200Y-102323900D03*
X156483200Y-99783900D03*
X156483200Y-97243900D03*
X156483200Y-94703900D03*
D10*
X172400000Y-71940000D03*
D14*
X172400000Y-69400000D03*
D10*
X213051400Y-68326000D03*
X208051400Y-68326000D03*
X284683200Y-116941600D03*
X279683200Y-116941600D03*
D17*
X133115200Y-142709900D03*
D18*
X133115200Y-145249900D03*
X130575200Y-142709900D03*
X130575200Y-145249900D03*
X128035200Y-142709900D03*
X128035200Y-145249900D03*
X125495200Y-142709900D03*
X125495200Y-145249900D03*
X122955200Y-142709900D03*
X120415200Y-145249900D03*
X122955200Y-145249900D03*
X120415200Y-147789900D03*
X122955200Y-147789900D03*
X120415200Y-150329900D03*
X122955200Y-150329900D03*
X120415200Y-152869900D03*
X122955200Y-152869900D03*
X120415200Y-155409900D03*
X122955200Y-155409900D03*
X120415200Y-157949900D03*
X122955200Y-157949900D03*
X120415200Y-160489900D03*
X122955200Y-160489900D03*
X120415200Y-163029900D03*
X122955200Y-163029900D03*
X120415200Y-165569900D03*
X122955200Y-168109900D03*
X122955200Y-165569900D03*
X125495200Y-168109900D03*
X125495200Y-165569900D03*
X128035200Y-168109900D03*
X128035200Y-165569900D03*
X130575200Y-168109900D03*
X130575200Y-165569900D03*
X133115200Y-168109900D03*
X133115200Y-165569900D03*
X135655200Y-168109900D03*
X135655200Y-165569900D03*
X138195200Y-168109900D03*
X138195200Y-165569900D03*
X140735200Y-168109900D03*
X140735200Y-165569900D03*
X143275200Y-168109900D03*
X145815200Y-165569900D03*
X143275200Y-165569900D03*
X145815200Y-163029900D03*
X143275200Y-163029900D03*
X145815200Y-160489900D03*
X143275200Y-160489900D03*
X145815200Y-157949900D03*
X143275200Y-157949900D03*
X145815200Y-155409900D03*
X143275200Y-155409900D03*
X145815200Y-152869900D03*
X143275200Y-152869900D03*
X145815200Y-150329900D03*
X143275200Y-150329900D03*
X145815200Y-147789900D03*
X143275200Y-147789900D03*
X145815200Y-145249900D03*
X143275200Y-142709900D03*
X143275200Y-145249900D03*
X140735200Y-142709900D03*
X140735200Y-145249900D03*
X138195200Y-142709900D03*
X138195200Y-145249900D03*
X135655200Y-142709900D03*
X135655200Y-145249900D03*
D30*
X160801200Y-98513900D03*
D31*
X160801200Y-101053900D03*
X160801200Y-103593900D03*
X160801200Y-106133900D03*
X160801200Y-108673900D03*
X160801200Y-111213900D03*
X160801200Y-113753900D03*
X160801200Y-116293900D03*
X160801200Y-118833900D03*
X160801200Y-121373900D03*
X168421200Y-121373900D03*
X168421200Y-118833900D03*
X168421200Y-116293900D03*
X168421200Y-113753900D03*
X168421200Y-111213900D03*
X168421200Y-108673900D03*
X168421200Y-106133900D03*
X168421200Y-103593900D03*
X168421200Y-101053900D03*
X168421200Y-98513900D03*
D28*
X201015600Y-70358000D03*
D29*
X201015600Y-62738000D03*
D35*
X233851600Y-109258100D03*
D36*
X236391600Y-109258100D03*
X238931600Y-109258100D03*
X241471600Y-109258100D03*
X244011600Y-109258100D03*
X246551600Y-109258100D03*
X249091600Y-109258100D03*
X251631600Y-109258100D03*
X254171600Y-109258100D03*
X256711600Y-109258100D03*
X259251600Y-109258100D03*
X261791600Y-109258100D03*
X264331600Y-109258100D03*
X266871600Y-109258100D03*
X269411600Y-109258100D03*
X271951600Y-109258100D03*
X271951600Y-94018100D03*
X269411600Y-94018100D03*
X266871600Y-94018100D03*
X264331600Y-94018100D03*
X261791600Y-94018100D03*
X259251600Y-94018100D03*
X256711600Y-94018100D03*
X254171600Y-94018100D03*
X251631600Y-94018100D03*
X249091600Y-94018100D03*
X246551600Y-94018100D03*
X244011600Y-94018100D03*
X241471600Y-94018100D03*
X238931600Y-94018100D03*
X236391600Y-94018100D03*
X233851600Y-94018100D03*
D23*
X92081200Y-70007500D03*
X94581200Y-72507500D03*
X104581200Y-60007500D03*
X94581200Y-60007500D03*
X99581200Y-70007500D03*
X104581200Y-72547500D03*
X107081200Y-70007500D03*
X99581200Y-75007500D03*
D15*
X146970000Y-81610000D03*
D16*
X146970000Y-84150000D03*
X144430000Y-81610000D03*
X144430000Y-84150000D03*
X141890000Y-81610000D03*
X141890000Y-84150000D03*
X139350000Y-81610000D03*
X139350000Y-84150000D03*
D10*
X120885000Y-79050000D03*
D14*
X123425000Y-79050000D03*
D28*
X136017000Y-233654600D03*
X133477000Y-233654600D03*
D15*
X88411200Y-96583500D03*
D16*
X88411200Y-99123500D03*
X88411200Y-101663500D03*
X88411200Y-104203500D03*
X88411200Y-106743500D03*
X88411200Y-109283500D03*
D10*
X174749600Y-69413600D03*
D14*
X174749600Y-71953600D03*
D10*
X208210000Y-60000000D03*
X213210000Y-60000000D03*
D27*
X120663200Y-244563900D03*
X116703200Y-244563900D03*
X116703200Y-244563900D03*
X112743200Y-244563900D03*
X112743200Y-244563900D03*
X108783200Y-244563900D03*
X108783200Y-244563900D03*
X104823200Y-244563900D03*
X104823200Y-244563900D03*
X100863200Y-244563900D03*
X100863200Y-244563900D03*
D10*
X126250000Y-79075000D03*
D14*
X128790000Y-79075000D03*
D10*
X214905600Y-76733400D03*
X209905600Y-76733400D03*
X195425000Y-79800000D03*
X190425000Y-79800000D03*
D21*
X131485000Y-82125000D03*
D34*
X134025000Y-82125000D03*
D10*
X161135000Y-89675000D03*
D14*
X163675000Y-89675000D03*
D30*
X155074600Y-76940400D03*
D31*
X155074600Y-74400400D03*
X155074600Y-71860400D03*
X155074600Y-69320400D03*
X155074600Y-66780400D03*
X155074600Y-64240400D03*
X155074600Y-61700400D03*
X147454600Y-61700400D03*
X147454600Y-64240400D03*
X147454600Y-66780400D03*
X147454600Y-69320400D03*
X147454600Y-71860400D03*
X147454600Y-74400400D03*
X147454600Y-76940400D03*
D30*
X95402400Y-189966600D03*
D31*
X95402400Y-192506600D03*
X95402400Y-195046600D03*
X95402400Y-197586600D03*
X95402400Y-200126600D03*
X95402400Y-202666600D03*
X95402400Y-205206600D03*
X95402400Y-207746600D03*
X95402400Y-210286600D03*
X95402400Y-212826600D03*
X95402400Y-215366600D03*
X95402400Y-217906600D03*
X110642400Y-217906600D03*
X110642400Y-215366600D03*
X110642400Y-212826600D03*
X110642400Y-210286600D03*
X110642400Y-207746600D03*
X110642400Y-205206600D03*
X110642400Y-202666600D03*
X110642400Y-200126600D03*
X110642400Y-197586600D03*
X110642400Y-195046600D03*
X110642400Y-192506600D03*
X110642400Y-189966600D03*
D10*
X150900000Y-90645000D03*
D14*
X150900000Y-88105000D03*
D10*
X191380000Y-60130000D03*
X196380000Y-60130000D03*
X158400000Y-71940000D03*
D14*
X158400000Y-69400000D03*
D11*
X208153000Y-64465200D03*
D12*
X210693000Y-64465200D03*
X213233000Y-64465200D03*
D10*
X139516000Y-208902300D03*
X139516000Y-213902300D03*
D13*
X281584400Y-91338400D03*
D10*
X281584400Y-98958400D03*
X289204400Y-98958400D03*
X289204400Y-91338400D03*
D21*
X131485000Y-85450000D03*
D34*
X134025000Y-85450000D03*
D10*
X152470000Y-150075900D03*
X152470000Y-155075900D03*
X95624800Y-163918900D03*
X95624800Y-158918900D03*
X296589600Y-59935100D03*
X296589600Y-64935100D03*
X214960200Y-78841600D03*
X209960200Y-78841600D03*
D13*
X219500000Y-214420000D03*
D14*
X219500000Y-211880000D03*
X219500000Y-209340000D03*
X219500000Y-206800000D03*
X219500000Y-204260000D03*
X219500000Y-201720000D03*
X219500000Y-199180000D03*
X219500000Y-196640000D03*
X219500000Y-194100000D03*
D15*
X88696800Y-217906600D03*
D16*
X88696800Y-215366600D03*
X88696800Y-212826600D03*
X88696800Y-210286600D03*
X88696800Y-207746600D03*
X88696800Y-205206600D03*
D37*
X167925000Y-85100000D03*
D38*
X166425000Y-85100000D03*
D13*
X88569800Y-189966600D03*
D14*
X88569800Y-187426600D03*
X88569800Y-184886600D03*
X88569800Y-182346600D03*
X88569800Y-179806600D03*
X88569800Y-177266600D03*
X88569800Y-174726600D03*
X88569800Y-172186600D03*
X88569800Y-169646600D03*
D10*
X191316600Y-71221600D03*
X196316600Y-71221600D03*
D28*
X139312800Y-205549500D03*
D29*
X139312800Y-197929500D03*
D19*
X304717600Y-84239100D03*
D20*
X302177600Y-84239100D03*
X299637600Y-84239100D03*
D28*
X205400000Y-222945000D03*
D29*
X205400000Y-215325000D03*
D28*
X213182200Y-74142600D03*
D29*
X205562200Y-74142600D03*
D13*
X316661800Y-183743600D03*
D14*
X316661800Y-181203600D03*
X316661800Y-178663600D03*
X316661800Y-176123600D03*
X309041800Y-176123600D03*
X309041800Y-178663600D03*
X309041800Y-181203600D03*
X309041800Y-183743600D03*
D39*
X320543200Y-168450400D03*
X320543200Y-143450400D03*
D22*
X310203200Y-161490400D03*
X310203200Y-158720400D03*
X310203200Y-155950400D03*
X310203200Y-153180400D03*
X310203200Y-150410400D03*
X313043200Y-160105400D03*
X313043200Y-157335400D03*
X313043200Y-154565400D03*
X313043200Y-151795400D03*
D15*
X312887600Y-106349800D03*
D16*
X310347600Y-106349800D03*
X307807600Y-106349800D03*
X305267600Y-106349800D03*
X302727600Y-106349800D03*
X300187600Y-106349800D03*
X297647600Y-106349800D03*
X295107600Y-106349800D03*
D39*
X320543200Y-111700400D03*
X320543200Y-136700400D03*
D22*
X310203200Y-129740400D03*
X310203200Y-126970400D03*
X310203200Y-124200400D03*
X310203200Y-121430400D03*
X310203200Y-118660400D03*
X313043200Y-128355400D03*
X313043200Y-125585400D03*
X313043200Y-122815400D03*
X313043200Y-120045400D03*
D28*
X88309600Y-145585000D03*
D29*
X88309600Y-137965000D03*
D40*
X181025000Y-89990000D03*
X181025000Y-88720000D03*
X181025000Y-87450000D03*
X181025000Y-86180000D03*
X181025000Y-84910000D03*
X181025000Y-83640000D03*
X181025000Y-82370000D03*
X181025000Y-81100000D03*
X171725000Y-81100000D03*
X171725000Y-82370000D03*
X171725000Y-83640000D03*
X171725000Y-84910000D03*
X171725000Y-86180000D03*
X171725000Y-87450000D03*
X171725000Y-88720000D03*
X171725000Y-89990000D03*
D10*
X167600000Y-72040000D03*
D14*
X167600000Y-69500000D03*
D30*
X192860000Y-92980000D03*
D31*
X192860000Y-95520000D03*
X192860000Y-98060000D03*
X192860000Y-100600000D03*
X192860000Y-103140000D03*
X192860000Y-105680000D03*
X192860000Y-108220000D03*
X192860000Y-110760000D03*
X192860000Y-113300000D03*
X192860000Y-115840000D03*
X192860000Y-118380000D03*
X192860000Y-120920000D03*
X192860000Y-123460000D03*
X192860000Y-126000000D03*
X208100000Y-126000000D03*
X208100000Y-123460000D03*
X208100000Y-120920000D03*
X208100000Y-118380000D03*
X208100000Y-115840000D03*
X208100000Y-113300000D03*
X208100000Y-110760000D03*
X208100000Y-108220000D03*
X208100000Y-105680000D03*
X208100000Y-103140000D03*
X208100000Y-100600000D03*
X208100000Y-98060000D03*
X208100000Y-95520000D03*
X208100000Y-92980000D03*
D15*
X199899400Y-84624600D03*
D16*
X202439400Y-84624600D03*
X204979400Y-84624600D03*
X207519400Y-84624600D03*
D15*
X318662200Y-88734900D03*
D16*
X316122200Y-88734900D03*
X313582200Y-88734900D03*
D10*
X162900000Y-71940000D03*
D14*
X162900000Y-69400000D03*
D10*
X161210000Y-85100000D03*
D14*
X163750000Y-85100000D03*
D15*
X88360400Y-81394300D03*
D16*
X90900400Y-81394300D03*
X88360400Y-83934300D03*
X90900400Y-83934300D03*
X88360400Y-86474300D03*
X90900400Y-86474300D03*
X88360400Y-89014300D03*
X90900400Y-89014300D03*
X88360400Y-91554300D03*
X90900400Y-91554300D03*
D17*
X119475400Y-200545700D03*
D18*
X116935400Y-203085700D03*
X119475400Y-203085700D03*
X116935400Y-205625700D03*
X119475400Y-205625700D03*
X116935400Y-208165700D03*
X119475400Y-210705700D03*
X119475400Y-208165700D03*
X122015400Y-210705700D03*
X122015400Y-208165700D03*
X124555400Y-210705700D03*
X124555400Y-208165700D03*
X127095400Y-210705700D03*
X127095400Y-208165700D03*
X129635400Y-210705700D03*
X129635400Y-208165700D03*
X132175400Y-210705700D03*
X134715400Y-208165700D03*
X132175400Y-208165700D03*
X134715400Y-205625700D03*
X132175400Y-205625700D03*
X134715400Y-203085700D03*
X132175400Y-203085700D03*
X134715400Y-200545700D03*
X132175400Y-200545700D03*
X134715400Y-198005700D03*
X132175400Y-198005700D03*
X134715400Y-195465700D03*
X132175400Y-192925700D03*
X132175400Y-195465700D03*
X129635400Y-192925700D03*
X129635400Y-195465700D03*
X127095400Y-192925700D03*
X127095400Y-195465700D03*
X124555400Y-192925700D03*
X124555400Y-195465700D03*
X122015400Y-192925700D03*
X122015400Y-195465700D03*
X119475400Y-192925700D03*
X116935400Y-195465700D03*
X119475400Y-195465700D03*
X116935400Y-198005700D03*
X119475400Y-198005700D03*
X116935400Y-200545700D03*
D15*
X92075000Y-169672000D03*
D16*
X92075000Y-172212000D03*
X92075000Y-174752000D03*
X92075000Y-177292000D03*
X92075000Y-179832000D03*
X92075000Y-182372000D03*
X92075000Y-184912000D03*
X92075000Y-187452000D03*
X92075000Y-189992000D03*
X92075000Y-192532000D03*
X92075000Y-195072000D03*
X92075000Y-197612000D03*
X92075000Y-200152000D03*
X92075000Y-202692000D03*
X92075000Y-205232000D03*
X92075000Y-207772000D03*
X92075000Y-210312000D03*
X92075000Y-212852000D03*
X92075000Y-215392000D03*
X92075000Y-217932000D03*
D11*
X173327200Y-62174600D03*
D12*
X173327200Y-64714600D03*
X173327200Y-67254600D03*
D41*
X306100800Y-101968300D03*
X309910800Y-101968300D03*
X302290800Y-101968300D03*
X306100800Y-97138300D03*
X309910800Y-97138300D03*
X302290800Y-97138300D03*
X322700800Y-101968300D03*
X322700800Y-97138300D03*
D15*
X124250000Y-95750000D03*
D16*
X124250000Y-98290000D03*
X124250000Y-100830000D03*
X124250000Y-103370000D03*
X124250000Y-105910000D03*
X124250000Y-108450000D03*
X124250000Y-110990000D03*
D13*
X200435200Y-193911300D03*
D14*
X200435200Y-196451300D03*
X200435200Y-198991300D03*
X200435200Y-201531300D03*
X200435200Y-204071300D03*
X200435200Y-206611300D03*
X200435200Y-209151300D03*
X208055200Y-209151300D03*
X208055200Y-206611300D03*
X208055200Y-204071300D03*
X208055200Y-201531300D03*
X208055200Y-198991300D03*
X208055200Y-196451300D03*
X208055200Y-193911300D03*
D37*
X167950000Y-80500000D03*
D38*
X166450000Y-80500000D03*
D35*
X116281200Y-228701600D03*
D36*
X118821200Y-228701600D03*
X121361200Y-228701600D03*
X123901200Y-228701600D03*
X126441200Y-228701600D03*
X128981200Y-228701600D03*
X131521200Y-228701600D03*
X131521200Y-221081600D03*
X128981200Y-221081600D03*
X126441200Y-221081600D03*
X123901200Y-221081600D03*
X121361200Y-221081600D03*
X118821200Y-221081600D03*
X116281200Y-221081600D03*
D10*
X275202800Y-128130300D03*
X275202800Y-123130300D03*
X170025200Y-69413600D03*
D14*
X170025200Y-71953600D03*
D15*
X302488600Y-114477800D03*
D16*
X299948600Y-114477800D03*
X297408600Y-114477800D03*
X294868600Y-114477800D03*
D35*
X233851600Y-128485900D03*
D36*
X236391600Y-128485900D03*
X238931600Y-128485900D03*
X241471600Y-128485900D03*
X244011600Y-128485900D03*
X246551600Y-128485900D03*
X249091600Y-128485900D03*
X251631600Y-128485900D03*
X254171600Y-128485900D03*
X256711600Y-128485900D03*
X259251600Y-128485900D03*
X261791600Y-128485900D03*
X264331600Y-128485900D03*
X266871600Y-128485900D03*
X269411600Y-128485900D03*
X271951600Y-128485900D03*
X271951600Y-113245900D03*
X269411600Y-113245900D03*
X266871600Y-113245900D03*
X264331600Y-113245900D03*
X261791600Y-113245900D03*
X259251600Y-113245900D03*
X256711600Y-113245900D03*
X254171600Y-113245900D03*
X251631600Y-113245900D03*
X249091600Y-113245900D03*
X246551600Y-113245900D03*
X244011600Y-113245900D03*
X241471600Y-113245900D03*
X238931600Y-113245900D03*
X236391600Y-113245900D03*
X233851600Y-113245900D03*
D28*
X290160000Y-149440000D03*
D29*
X290160000Y-157060000D03*
D17*
X176371400Y-200634000D03*
D18*
X173831400Y-203174000D03*
X176371400Y-203174000D03*
X173831400Y-205714000D03*
X176371400Y-205714000D03*
X173831400Y-208254000D03*
X176371400Y-210794000D03*
X176371400Y-208254000D03*
X178911400Y-210794000D03*
X178911400Y-208254000D03*
X181451400Y-210794000D03*
X181451400Y-208254000D03*
X183991400Y-210794000D03*
X183991400Y-208254000D03*
X186531400Y-210794000D03*
X186531400Y-208254000D03*
X189071400Y-210794000D03*
X191611400Y-208254000D03*
X189071400Y-208254000D03*
X191611400Y-205714000D03*
X189071400Y-205714000D03*
X191611400Y-203174000D03*
X189071400Y-203174000D03*
X191611400Y-200634000D03*
X189071400Y-200634000D03*
X191611400Y-198094000D03*
X189071400Y-198094000D03*
X191611400Y-195554000D03*
X189071400Y-193014000D03*
X189071400Y-195554000D03*
X186531400Y-193014000D03*
X186531400Y-195554000D03*
X183991400Y-193014000D03*
X183991400Y-195554000D03*
X181451400Y-193014000D03*
X181451400Y-195554000D03*
X178911400Y-193014000D03*
X178911400Y-195554000D03*
X176371400Y-193014000D03*
X173831400Y-195554000D03*
X176371400Y-195554000D03*
X173831400Y-198094000D03*
X176371400Y-198094000D03*
X173831400Y-200634000D03*
D17*
X228365200Y-200240900D03*
D18*
X225825200Y-202780900D03*
X228365200Y-202780900D03*
X225825200Y-205320900D03*
X228365200Y-205320900D03*
X225825200Y-207860900D03*
X228365200Y-210400900D03*
X228365200Y-207860900D03*
X230905200Y-210400900D03*
X230905200Y-207860900D03*
X233445200Y-210400900D03*
X233445200Y-207860900D03*
X235985200Y-210400900D03*
X235985200Y-207860900D03*
X238525200Y-210400900D03*
X238525200Y-207860900D03*
X241065200Y-210400900D03*
X243605200Y-207860900D03*
X241065200Y-207860900D03*
X243605200Y-205320900D03*
X241065200Y-205320900D03*
X243605200Y-202780900D03*
X241065200Y-202780900D03*
X243605200Y-200240900D03*
X241065200Y-200240900D03*
X243605200Y-197700900D03*
X241065200Y-197700900D03*
X243605200Y-195160900D03*
X241065200Y-192620900D03*
X241065200Y-195160900D03*
X238525200Y-192620900D03*
X238525200Y-195160900D03*
X235985200Y-192620900D03*
X235985200Y-195160900D03*
X233445200Y-192620900D03*
X233445200Y-195160900D03*
X230905200Y-192620900D03*
X230905200Y-195160900D03*
X228365200Y-192620900D03*
X225825200Y-195160900D03*
X228365200Y-195160900D03*
X225825200Y-197700900D03*
X228365200Y-197700900D03*
X225825200Y-200240900D03*
M02*
